<?xml version="1.0" encoding="UTF-8"?>
<svg width="26px" height="26px" viewBox="0 0 26 26" version="1.1" xmlns="http://www.w3.org/2000/svg" xmlns:xlink="http://www.w3.org/1999/xlink">
    <!-- Generator: Sketch 50.2 (55047) - http://www.bohemiancoding.com/sketch -->
    <title>Shape</title>
    <desc>Created with Sketch.</desc>
    <defs></defs>
    <g id="Page-1" stroke="none" stroke-width="1" fill="none" fill-rule="evenodd">
        <g id="3.1-WoC---Become-a-star" transform="translate(-768.000000, -689.000000)" fill="#FFFFFF" fill-rule="nonzero">
            <path d="M769.218276,698.193695 L769.100179,698.178341 C770.471436,693.921075 774.06701,690.651594 778.511768,689.749577 L778.506046,689.775421 C778.485034,689.869771 777.286933,695.490887 778.431755,701.754524 C777.638012,701.939124 776.880413,702.147502 776.171324,702.374667 C775.02825,700.177719 772.49526,698.620274 769.218276,698.193695 Z M789.753045,693.527557 L790.074465,693.416264 C792.195501,695.657557 793.5,698.678734 793.5,702 C793.5,702.17662 793.493928,702.351842 793.486649,702.526714 C789.612696,701.201647 785.9908,700.874823 782.782672,701.097315 C782.785183,698.090953 785.570452,694.97692 789.753045,693.527557 Z M793.326399,703.568604 L793.395032,703.592604 C793.243589,704.777608 792.92735,705.9114 792.467044,706.969597 L792.160628,706.991659 C787.541538,707.329386 783.647495,705.310903 782.903629,702.200144 C782.897939,702.176271 782.896795,702.151984 782.891486,702.128078 C786.014229,701.918842 789.545113,702.246906 793.326399,703.568604 Z M779.523045,690.000997 L779.616473,689.578392 C780.071058,689.528038 780.532255,689.5 781,689.5 C784.154437,689.5 787.036345,690.67623 789.237425,692.609487 C784.612073,694.272822 781.665792,697.723597 781.738875,701.189568 C780.943987,701.275557 780.180253,701.395752 779.444239,701.538676 C778.350152,695.520451 779.50289,690.091787 779.523045,690.000997 Z M778.63724,702.767326 C779.512077,706.697641 781.368627,710.773486 785.050509,713.822891 C783.779388,714.259515 782.417796,714.5 781,714.5 C777.963787,714.5 775.177182,713.40995 773.00875,711.602038 L773.091974,711.539032 C775.985294,709.348378 777.325779,706.422506 776.678043,703.712036 C776.647303,703.583385 776.607122,703.458168 776.567894,703.332664 C777.219095,703.126289 777.911939,702.936445 778.63724,702.767326 Z M791.129388,708.070964 C791.394955,708.070964 791.666943,708.055927 791.938517,708.04159 C790.63885,710.385658 788.607587,712.268466 786.154641,713.38347 L785.816786,713.108398 C782.276112,710.224805 780.493313,706.325549 779.650297,702.551573 C780.35627,702.415262 781.089041,702.300725 781.851695,702.2189 C781.866477,702.293287 781.872707,702.368055 781.890446,702.442251 C782.704248,705.846741 786.428155,708.071218 791.129388,708.070964 Z M775.66486,703.954142 C776.213668,706.250336 775.01687,708.775157 772.463311,710.708445 L772.224194,710.889453 C771.055211,709.735252 770.111646,708.353792 769.466994,706.816723 L769.622125,706.697164 C769.669173,706.660829 771.889359,704.990405 775.580809,703.666705 C775.610087,703.762072 775.641558,703.856677 775.66486,703.954142 Z M775.174925,702.715828 C771.772883,703.943239 769.576539,705.446515 769.091278,705.795401 C768.708441,704.59765 768.5,703.32281 768.5,702 C768.5,701.034595 768.613773,700.095735 768.822088,699.192542 L769.083998,699.226715 C771.941779,699.59868 774.15335,700.894246 775.174925,702.715828 Z" id="Shape"></path>
        </g>
    </g>
</svg>