<?xml version="1.0" encoding="UTF-8" standalone="no"?>
<!DOCTYPE svg  PUBLIC '-//W3C//DTD SVG 1.1//EN'  'http://www.w3.org/Graphics/SVG/1.1/DTD/svg11.dtd'>
<svg version="1.1" xmlns="http://www.w3.org/2000/svg">
<defs>
<font id="Boston-Black" horiz-adv-x="593">
<font-face font-family="BostonBlack" underline-position="-150" bbox="-85.5652 -242 969.2 982" units-per-em="1000" x-height="460" font-weight="800" underline-thickness="50" cap-height="703" descent="-200" ascent="800" panose-1="0 0 9 0 0 0 0 0 0 0" unicode-range="U+0020-00FE"/>
<missing-glyph/>
<glyph horiz-adv-x="224" unicode=" " glyph-name="space"/>
<glyph horiz-adv-x="290" unicode="!" d="M103 215q-18 0 -20 19l-28 481q-1 21 20 21h140q21 0 20 -21l-30 -481q-2 -19 -20 -19h-82zM147 -8q-40 0 -67.5 27.5t-27.5 66.5t27.5 67t67.5 28q38 0 66 -28.5t28 -66.5q0 -39 -28 -66.5t-66 -27.5z" glyph-name="exclam"/>
<glyph horiz-adv-x="402" unicode='&quot;' d="M80 511q-18 0 -20 19l-13 169q-1 21 19 21h92q20 0 19 -21l-13 -169q-2 -19 -21 -19h-63zM259 511q-18 0 -20 19l-13 169q-2 21 19 21h90q21 0 20 -21l-13 -169q-2 -19 -20 -19h-63z" glyph-name="quotedbl"/>
<glyph horiz-adv-x="702" unicode="#" d="M627 530q20 0 20 -20v-83q0 -20 -20 -20h-80l-31 -110h79q20 0 20 -20v-82q0 -20 -20 -20h-114l-45 -157q-4 -17 -23 -17h-94q-11 0 -15.5 6t-1.5 16l44 152h-118l-45 -157q-4 -17 -23 -17h-89q-11 0 -15.5 6t-1.5 16l44 152h-44q-20 0 -20 20v82q0 20 20 20h79l31 110 h-78q-20 0 -20 20v83q0 20 20 20h114l45 157q4 17 23 17h88q11 0 15.5 -6t1.5 -16l-43 -152h118l45 157q4 17 23 17h93q11 0 15.5 -6t1.5 -16l-43 -152h44zM381 297l31 110h-118l-31 -110h118z" glyph-name="numbersign"/>
<glyph horiz-adv-x="551" unicode="$" d="M507 235q0 -65 -38 -112t-106 -67v-73q0 -20 -20 -20h-119q-20 0 -20 20v65q-89 15 -155 57q-15 9 -7 27l37 83q8 20 27 8q80 -44 153 -44q42 0 67.5 13t25.5 34q0 9 -3.5 16.5t-12 14t-17 11t-23.5 10t-25.5 9t-30 9.5t-30.5 10q-71 23 -112.5 61t-41.5 114 q0 66 40 113.5t109 66.5v72q0 20 20 20h119q20 0 20 -20v-68q67 -14 127 -50q15 -9 7 -27l-36 -82q-8 -19 -27 -8q-71 37 -136 37q-37 0 -60 -13t-23 -34q0 -20 22.5 -33t67.5 -26q32 -10 45.5 -15t43.5 -17t45 -25t33 -32.5t26 -46t8 -58.5z" glyph-name="dollar"/>
<glyph horiz-adv-x="922" unicode="%" d="M219 398q-84 0 -136.5 51t-52.5 134q0 81 52.5 131t136.5 50q85 0 137 -50t52 -131q0 -83 -52 -134t-137 -51zM308 2q-9 -16 -27 -8l-81 36q-19 10 -8 27l406 683q10 18 27 8l82 -41q18 -9 8 -27zM219 507q34 0 54.5 21t20.5 55q0 32 -20.5 52t-54.5 20q-33 0 -53 -20 t-20 -52q0 -34 20 -55t53 -21zM702 -14q-86 0 -137.5 50t-51.5 133t51.5 132t137.5 49t138 -49.5t52 -131.5q0 -83 -52 -133t-138 -50zM702 93q34 0 54 20.5t20 55.5q0 32 -20 52t-54 20q-33 0 -54 -20t-21 -52q0 -34 21 -55t54 -21z" glyph-name="percent"/>
<glyph horiz-adv-x="707" unicode="&amp;" d="M675 310q14 -12 7 -25l-8 -15q-9 -15 -16 -26.5t-25 -34.5t-41 -47l73 -67q13 -13 1 -28q-6 -7 -68 -76q-14 -16 -29 -1l-81 74q-88 -73 -206 -73q-107 0 -176 57.5t-69 148.5q0 114 120 177q-57 70 -57 148q0 85 61 137.5t159 52.5q94 0 153 -49t59 -128 q0 -57 -37.5 -109t-100.5 -84l102 -93q46 53 77 108q11 19 28 6zM324 589q-31 0 -51.5 -19.5t-20.5 -49.5q0 -41 47 -89q42 17 67 43.5t25 53.5q0 26 -19 43.5t-48 17.5zM294 122q50 0 94 33l-140 128q-51 -31 -51 -79q0 -37 27 -59.5t70 -22.5z" glyph-name="ampersand"/>
<glyph horiz-adv-x="224" unicode="&apos;" d="M80 511q-18 0 -20 19l-13 169q-1 21 19 21h92q20 0 19 -21l-13 -169q-2 -19 -21 -19h-63z" glyph-name="quotesingle"/>
<glyph horiz-adv-x="368" unicode="(" d="M295 -103q-12 -17 -28 -5q-231 162 -231 462t230 461q17 11 28 -6l51 -76q10 -16 -4 -28q-82 -71 -122 -152t-40 -199q0 -117 41.5 -197t126.5 -154q15 -12 4 -28z" glyph-name="parenleft"/>
<glyph horiz-adv-x="367" unicode=")" d="M102 -108q-16 -12 -28 5l-58 78q-11 16 4 29q85 73 127 153t42 197q0 118 -39.5 199t-121.5 152q-14 12 -4 28l51 76q11 17 28 6q228 -161 228 -461q0 -299 -229 -462z" glyph-name="parenright"/>
<glyph horiz-adv-x="427" unicode="*" d="M366 525q19 -9 9 -27l-26 -46q-11 -17 -28 -5l-72 53l10 -90q1 -21 -19 -21h-50q-20 0 -19 21l9 91l-75 -54q-17 -12 -27 6l-26 45q-10 18 9 27l82 36l-82 36q-19 9 -9 26l26 46q9 19 27 6l73 -53l-7 85q-1 21 19 21h50q20 0 19 -21l-9 -84l71 52q17 12 28 -6l26 -46 q10 -17 -9 -26l-82 -35z" glyph-name="asterisk"/>
<glyph horiz-adv-x="546" unicode="+" d="M492 354q20 0 20 -20v-84q0 -20 -20 -20h-153v-155q0 -20 -20 -20h-89q-20 0 -20 20v155h-156q-20 0 -20 20v84q0 20 20 20h156v159q0 20 20 20h89q20 0 20 -20v-159h153z" glyph-name="plus"/>
<glyph horiz-adv-x="278" unicode="," d="M122 -126q-15 -8 -28 6l-17 19q-12 16 4 29q46 39 46 69q-3 -1 -13 -1q-31 0 -50.5 21t-20.5 55q-1 41 26 66.5t71 25.5q41 0 67 -26.5t27 -69.5q1 -58 -29.5 -111t-82.5 -83z" glyph-name="comma"/>
<glyph horiz-adv-x="365" unicode="-" d="M68 182q-20 0 -20 20v88q0 20 20 20h229q20 0 20 -20v-88q0 -20 -20 -20h-229z" glyph-name="hyphen"/>
<glyph horiz-adv-x="271" unicode="." d="M136 -9q-40 0 -67.5 27.5t-27.5 66.5t27.5 67t67.5 28q39 0 66.5 -28t27.5 -67t-27.5 -66.5t-66.5 -27.5z" glyph-name="period"/>
<glyph horiz-adv-x="418" unicode="/" d="M48 -163q-22 0 -17 22l229 910q5 17 22 17h88q22 0 17 -22l-228 -910q-5 -17 -22 -17h-89z" glyph-name="slash"/>
<glyph horiz-adv-x="693" unicode="0" d="M349 -9q-138 0 -220 95t-82 266q0 176 81.5 268t220.5 92q136 0 216 -94.5t81 -266.5q1 -171 -79.5 -265.5t-217.5 -94.5zM351 135q61 0 95.5 53.5t34.5 163.5t-34.5 164t-97.5 54q-138 0 -138 -219q0 -109 37.5 -162.5t102.5 -53.5z" glyph-name="zero"/>
<glyph horiz-adv-x="432" unicode="1" d="M334 703q20 0 20 -20v-663q0 -20 -20 -20h-121q-20 0 -20 20v502l-120 -44q-19 -8 -26 12l-37 95q-7 18 12 26l223 87q11 5 25 5h64z" glyph-name="one"/>
<glyph horiz-adv-x="578" unicode="2" d="M65 0q-20 0 -20 20v55q0 15 13 24q131 91 213 181q81 87 79 168q-2 53 -38.5 85.5t-98.5 32.5q-69 0 -119 -24q-19 -8 -26 10l-35 92q-6 18 9 26q80 42 196 42q127 0 202 -63.5t75 -176.5q0 -141 -129 -270q-49 -49 -63 -60h188q20 0 20 -20v-102q0 -20 -20 -20h-446z " glyph-name="two"/>
<glyph horiz-adv-x="558" unicode="3" d="M324 436q87 -4 140 -63t53 -147q0 -108 -76 -171.5t-206 -63.5q-121 0 -207 56q-15 9 -7 27l41 83q8 18 27 7q61 -39 137 -39q61 0 94 26.5t33 75.5q0 46 -30.5 70.5t-88.5 24.5q-43 0 -82 -13q-19 -4 -26 12l-20 49q-6 16 6 28l170 165h-231q-20 0 -20 20v100 q0 20 20 20h414q20 0 20 -20v-69q0 -13 -10 -24z" glyph-name="three"/>
<glyph horiz-adv-x="606" unicode="4" d="M556 279q20 0 20 -20v-102q0 -20 -20 -20h-45v-117q0 -20 -20 -20h-118q-20 0 -20 20v117h-312q-20 0 -20 20v70q0 14 4 25l150 441q6 18 25 12l101 -35q19 -6 13 -25l-116 -366h155v211q0 20 20 20h118q20 0 20 -20v-211h45z" glyph-name="four"/>
<glyph horiz-adv-x="568" unicode="5" d="M305 456q103 0 168.5 -57.5t65.5 -163.5q0 -109 -70.5 -176.5t-200.5 -67.5q-127 0 -219 49q-18 8 -10 26l39 89q7 18 26 9q70 -39 151 -39q62 0 96 28t33 80q-1 47 -39 70.5t-88 23.5t-100 -19q-14 -5 -27 2l-41 25q-13 9 -13 24v324q0 20 20 20h378q20 0 20 -20v-98 q0 -20 -20 -20h-237v-115q34 6 68 6z" glyph-name="five"/>
<glyph horiz-adv-x="602" unicode="6" d="M345 456q98 0 159.5 -63t61.5 -162q0 -107 -72.5 -173.5t-185.5 -66.5q-122 0 -195 72.5t-73 189.5q0 290 345 452q18 8 27 -8l49 -82q11 -18 -9 -27q-160 -76 -224 -172q48 40 117 40zM308 130q50 0 79.5 28t29.5 73q0 44 -29.5 71t-79.5 27q-49 0 -79 -27t-30 -71 q0 -45 30 -73t79 -28z" glyph-name="six"/>
<glyph horiz-adv-x="533" unicode="7" d="M94 0q-11 0 -15.5 7t0.5 17l248 532h-291q-20 0 -20 20v107q0 20 20 20h467q20 0 20 -20v-40q0 -15 -5 -25l-269 -603q-6 -15 -24 -15h-131z" glyph-name="seven"/>
<glyph horiz-adv-x="618" unicode="8" d="M309 -9q-133 0 -200 59t-67 153q0 58 29.5 104.5t75.5 67.5q-79 46 -79 144q0 88 68 140.5t173 52.5t173 -52.5t68 -140.5q0 -98 -79 -144q47 -20 76 -64.5t29 -102.5q0 -94 -68.5 -155.5t-198.5 -61.5zM309 428q39 0 62.5 22.5t23.5 59.5q0 36 -24 58.5t-62 22.5 t-62 -22.5t-24 -58.5q0 -37 23.5 -59.5t62.5 -22.5zM309 123q45 0 73.5 24.5t28.5 62.5q0 40 -28 65t-74 25t-74 -25t-28 -65q0 -38 28.5 -62.5t73.5 -24.5z" glyph-name="eight"/>
<glyph horiz-adv-x="597" unicode="9" d="M289 712q126 0 197.5 -74.5t71.5 -192.5q0 -296 -346 -447q-18 -8 -27 9l-47 78q-10 18 8 27q168 85 226 175q-48 -40 -117 -40q-99 0 -161.5 62t-62.5 161q0 108 72 175t186 67zM290 375q49 0 79 27t30 71q0 46 -30 73.5t-79 27.5q-50 0 -79.5 -27.5t-29.5 -73.5 q0 -44 29.5 -71t79.5 -27z" glyph-name="nine"/>
<glyph horiz-adv-x="295" unicode=":" d="M148 293q-40 0 -67.5 27.5t-27.5 66.5t27.5 67t67.5 28q39 0 66.5 -28t27.5 -67t-27.5 -66.5t-66.5 -27.5zM148 -19q-40 0 -67.5 27.5t-27.5 66.5t27.5 67t67.5 28q39 0 66.5 -28t27.5 -67t-27.5 -66.5t-66.5 -27.5z" glyph-name="colon"/>
<glyph horiz-adv-x="336" unicode=";" d="M168 276q-40 0 -67.5 27.5t-27.5 66.5t27.5 67t67.5 28q39 0 66.5 -28t27.5 -67t-27.5 -66.5t-66.5 -27.5zM151 -135q-15 -8 -28 6l-17 19q-12 16 4 29q46 39 46 69q-3 -1 -13 -1q-31 0 -50.5 21t-20.5 55q-1 41 26 66.5t71 25.5q41 0 67 -26.5t27 -69.5 q1 -58 -29.5 -111t-82.5 -83z" glyph-name="semicolon"/>
<glyph horiz-adv-x="463" unicode="&lt;" d="M400 435q0 -15 -14 -24l-201 -122l202 -122q13 -9 13 -24v-104q0 -12 -7 -16t-17 2l-322 188q-14 8 -14 24v104q0 15 14 24l322 190q10 6 17 2t7 -16v-106z" glyph-name="less"/>
<glyph horiz-adv-x="640" unicode="=" d="M81 331q-20 0 -20 20v84q0 20 20 20h478q20 0 20 -20v-84q0 -20 -20 -20h-478zM81 120q-20 0 -20 20v85q0 20 20 20h478q20 0 20 -20v-85q0 -20 -20 -20h-478z" glyph-name="equal"/>
<glyph horiz-adv-x="463" unicode="&gt;" d="M409 365q14 -9 14 -24v-104q0 -16 -14 -24l-322 -188q-10 -6 -17 -2t-7 16v104q0 15 13 24l202 122l-201 122q-14 9 -14 24v106q0 12 7 16t17 -2z" glyph-name="greater"/>
<glyph horiz-adv-x="463" unicode="?" d="M133 206q-20 0 -20 20v20q0 46 16.5 84t39.5 63.5t46 47t39.5 44t16.5 45.5q0 70 -84 70q-52 0 -100 -25q-18 -9 -27 8l-40 82q-8 18 9 27q87 45 186 45q101 0 158.5 -52t57.5 -142q0 -46 -18 -82.5t-43.5 -61t-51.5 -48t-44 -55t-18 -69.5v-1q0 -20 -20 -20h-103z M186 -9q-37 0 -62.5 26t-25.5 62t25.5 61t62.5 25t61.5 -25t24.5 -61q0 -37 -24.5 -62.5t-61.5 -25.5z" glyph-name="question"/>
<glyph horiz-adv-x="965" unicode="@" d="M486 678q193 0 314 -105t121 -272q0 -109 -54 -175t-144 -67q-94 -2 -135 49q-50 -58 -144 -58q-82 0 -136.5 58.5t-54.5 144.5q0 87 56 145t141 58q60 0 104 -27q6 14 21 14h78q20 0 20 -20v-171q0 -34 10.5 -47t33.5 -13q29 0 45 26.5t16 74.5q0 115 -84 184.5 t-220 66.5q-137 -3 -219 -84t-80 -211q2 -119 77 -193.5t195 -79.5q76 -3 159 25q20 6 26 -12l31 -88q6 -18 -10 -25q-91 -34 -193 -34q-193 0 -312 112t-119 294q0 190 127.5 310t329.5 120zM475 178q35 0 57 21t22 53q0 34 -22 55t-57 21q-34 0 -55 -21t-21 -54 q0 -34 21 -54.5t55 -20.5z" glyph-name="at"/>
<glyph horiz-adv-x="714" unicode="A" d="M710 23q4 -10 -0.5 -16.5t-15.5 -6.5h-135q-17 0 -23 16l-44 109h-271l-45 -109q-6 -16 -23 -16h-135q-11 0 -15.5 6.5t-0.5 16.5l296 665q6 15 24 15h71q18 0 24 -15zM356 464l-82 -198h165z" glyph-name="A"/>
<glyph horiz-adv-x="688" unicode="B" d="M517 371q62 -15 96 -61t34 -108q0 -202 -276 -202h-272q-20 0 -20 20v663q0 20 20 20h259q133 0 198 -49.5t65 -130.5q0 -56 -28 -95.5t-76 -56.5zM460 492q0 73 -104 73h-113v-146h113q104 0 104 73zM372 138q111 0 111 74q0 77 -115 77h-125v-151h129z" glyph-name="B"/>
<glyph horiz-adv-x="670" unicode="C" d="M416 -9q-169 0 -273 103t-104 258q0 154 104 257t273 103q128 0 219 -59q15 -11 6 -28l-54 -98q-9 -18 -27 -7q-63 34 -137 34q-96 0 -153 -54.5t-57 -147.5t57 -148t153 -55q74 0 137 34q18 10 27 -7l54 -98q10 -18 -6 -28q-83 -59 -219 -59z" glyph-name="C"/>
<glyph horiz-adv-x="775" unicode="D" d="M364 703q167 0 268.5 -96.5t101.5 -254.5t-102 -255t-268 -97h-266q-20 0 -20 20v663q0 20 20 20h266zM354 148q98 0 153.5 55t55.5 147q0 94 -55.5 149.5t-153.5 55.5h-108v-407h108z" glyph-name="D"/>
<glyph horiz-adv-x="629" unicode="E" d="M557 147q20 0 20 -20v-107q0 -20 -20 -20h-459q-20 0 -20 20v663q0 20 20 20h454q20 0 20 -20v-108q0 -20 -20 -20h-306v-127h268q20 0 20 -20v-108q0 -20 -20 -20h-268v-133h311z" glyph-name="E"/>
<glyph horiz-adv-x="603" unicode="F" d="M551 703q20 0 20 -20v-108q0 -20 -20 -20h-305v-185h259q20 0 20 -20v-108q0 -20 -20 -20h-259v-202q0 -20 -20 -20h-128q-20 0 -20 20v663q0 20 20 20h453z" glyph-name="F"/>
<glyph horiz-adv-x="735" unicode="G" d="M666 364q20 0 20 -20v-250q0 -17 -11 -25q-93 -78 -258 -78q-166 0 -272 103.5t-106 257.5q0 153 107 256.5t275 103.5q136 0 230 -59q16 -10 7 -27l-54 -98q-9 -16 -27 -8q-73 34 -151 34q-95 0 -154 -55t-59 -147t61.5 -151.5t152.5 -59.5q61 0 104 22v181q0 20 20 20 h115z" glyph-name="G"/>
<glyph horiz-adv-x="810" unicode="H" d="M712 703q20 0 20 -20v-663q0 -20 -20 -20h-128q-20 0 -20 20v256h-318v-256q0 -20 -20 -20h-128q-20 0 -20 20v663q0 20 20 20h128q20 0 20 -20v-259h318v259q0 20 20 20h128z" glyph-name="H"/>
<glyph horiz-adv-x="324" unicode="I" d="M98 0q-20 0 -20 20v663q0 20 20 20h128q20 0 20 -20v-663q0 -20 -20 -20h-128z" glyph-name="I"/>
<glyph horiz-adv-x="499" unicode="J" d="M167 -9q-93 0 -150 30q-16 9 -8 27l47 107q7 16 26 10q32 -9 71 -9q47 0 77 27.5t30 71.5v428q0 20 20 20h128q20 0 20 -20v-432q0 -116 -71 -188t-190 -72z" glyph-name="J"/>
<glyph horiz-adv-x="684" unicode="K" d="M694 25q9 -10 5.5 -17.5t-16.5 -7.5h-166q-14 0 -25 11l-246 269v-260q0 -20 -20 -20h-128q-20 0 -20 20v663q0 20 20 20h128q20 0 20 -20v-275l252 284q10 11 25 11h147q13 0 16 -7.5t-5 -17.5l-290 -322z" glyph-name="K"/>
<glyph horiz-adv-x="574" unicode="L" d="M546 147q20 0 20 -20v-107q0 -20 -20 -20h-448q-20 0 -20 20v663q0 20 20 20h128q20 0 20 -20v-536h300z" glyph-name="L"/>
<glyph horiz-adv-x="914" unicode="M" d="M826 682l17 -662q0 -20 -21 -20h-123q-20 0 -20 20l-1 342l-163 -280q-8 -14 -24 -14h-71q-17 0 -24 14l-160 281l-1 -343q0 -20 -20 -20h-124q-20 0 -20 20l17 663q0 20 22 20h67q16 0 24 -14l254 -432l259 432q8 14 24 14h66q22 0 22 -21z" glyph-name="M"/>
<glyph horiz-adv-x="810" unicode="N" d="M711 703q20 0 20 -20v-672q0 -20 -20 -20h-58q-14 0 -25 11l-385 412v-394q0 -20 -20 -20h-124q-20 0 -20 20v670q0 20 20 20h58q14 0 25 -11l384 -410v394q0 20 20 20h125z" glyph-name="N"/>
<glyph horiz-adv-x="823" unicode="O" d="M413 -9q-161 0 -267.5 103.5t-106.5 255.5q0 154 106.5 258t267.5 104t266 -102.5t105 -259.5q0 -155 -105.5 -257t-265.5 -102zM413 146q86 0 142.5 58.5t56.5 145.5q0 89 -56.5 147.5t-142.5 58.5q-87 0 -144.5 -59t-57.5 -147q0 -87 57.5 -145.5t144.5 -58.5z" glyph-name="O"/>
<glyph horiz-adv-x="652" unicode="P" d="M335 703q132 0 212.5 -72.5t80.5 -189.5q0 -113 -82.5 -182t-218.5 -70l-81 -1v-168q0 -20 -20 -20h-128q-20 0 -20 20v663q0 20 20 20h237zM325 338q63 0 97.5 32t34.5 74q0 44 -35 77.5t-97 33.5h-79v-217h79z" glyph-name="P"/>
<glyph horiz-adv-x="822" unicode="Q" d="M762 -38q14 -13 2 -28l-73 -87q-16 -17 -31 -4l-173 154q-36 -6 -74 -6q-161 0 -267.5 103.5t-106.5 255.5q0 154 106.5 258t267.5 104t266 -102.5t105 -259.5q0 -88 -36 -161.5t-101 -122.5zM211 350q0 -87 57.5 -145.5t144.5 -58.5q86 0 142.5 58.5t56.5 145.5 q0 89 -56.5 147.5t-142.5 58.5q-87 0 -144.5 -59t-57.5 -147z" glyph-name="Q"/>
<glyph horiz-adv-x="669" unicode="R" d="M640 24q7 -10 3 -17t-16 -7h-151q-15 0 -24 13l-119 175h-1h-86v-168q0 -20 -20 -20h-128q-20 0 -20 20v663q0 20 20 20h242q132 0 212.5 -72.5t80.5 -188.5q0 -73 -35 -129t-98 -88zM246 557v-223h81q59 0 95 29.5t36 78.5q0 51 -36 83t-96 32h-80z" glyph-name="R"/>
<glyph horiz-adv-x="605" unicode="S" d="M306 -9q-162 0 -267 78q-18 12 -6 32l59 95q11 18 28 5q88 -65 191 -65q84 0 84 63q0 33 -27.5 51t-104.5 42q-39 12 -65 22.5t-56.5 28t-48.5 37t-30 50t-12 68.5q0 98 72.5 156t193.5 58q135 0 229 -64q16 -10 5 -28l-54 -90q-11 -19 -30 -7q-72 44 -152 44 q-93 0 -93 -57q0 -30 40 -48q17 -8 96 -34q38 -12 62 -22t54 -28t47.5 -39.5t29.5 -54.5t12 -75q0 -99 -69 -158.5t-188 -59.5z" glyph-name="S"/>
<glyph horiz-adv-x="647" unicode="T" d="M617 703q20 0 20 -20v-108q0 -20 -20 -20h-210v-535q0 -20 -20 -20h-128q-20 0 -20 20v535h-209q-20 0 -20 20v108q0 20 20 20h587z" glyph-name="T"/>
<glyph horiz-adv-x="774" unicode="U" d="M386 -9q-146 0 -231.5 82.5t-85.5 235.5v374q0 20 20 20h128q20 0 20 -20v-387q0 -65 37.5 -110t111.5 -45q75 0 113 45t38 110v387q0 20 20 20h128q20 0 20 -20v-374q0 -154 -86 -236t-233 -82z" glyph-name="U"/>
<glyph horiz-adv-x="690" unicode="V" d="M665 703q25 0 15 -23l-276 -665q-5 -15 -23 -15h-71q-18 0 -23 15l-277 665q-10 23 15 23h146q17 0 23 -16l116 -314l42 -142l40 143l110 313q6 16 23 16h140z" glyph-name="V"/>
<glyph horiz-adv-x="975" unicode="W" d="M951 703q11 0 15.5 -6.5t1.5 -16.5l-211 -663q-5 -17 -22 -17h-92q-17 0 -22 17l-136 429l-131 -429q-5 -17 -22 -17h-94q-17 0 -22 17l-209 663q-3 10 1.5 16.5t15.5 6.5h136q17 0 22 -17l63 -241l45 -208l56 200l80 250q4 16 22 16h76q18 0 22 -16l80 -249l61 -200 l55 209l62 239q5 17 22 17h125z" glyph-name="W"/>
<glyph horiz-adv-x="709" unicode="X" d="M691 24q7 -10 3.5 -17t-15.5 -7h-155q-16 0 -25 13l-144 220l-139 -220q-8 -13 -24 -13h-145q-12 0 -16 7t3 17l221 331l-211 324q-7 10 -3 17t16 7h154q17 0 24 -13l127 -210l131 210q8 13 24 13h144q12 0 16 -7t-3 -17l-211 -321z" glyph-name="X"/>
<glyph horiz-adv-x="690" unicode="Y" d="M659 703q12 0 16 -7t-2 -17l-244 -405v-254q0 -20 -20 -20h-129q-20 0 -20 20v253l-241 406q-6 10 -2 17t16 7h157q17 0 24 -14l138 -249l137 249q7 14 24 14h146z" glyph-name="Y"/>
<glyph horiz-adv-x="661" unicode="Z" d="M601 148q20 0 20 -20v-108q0 -20 -20 -20h-547q-20 0 -20 20v71q0 13 9 25l342 439h-330q-20 0 -20 20v108q0 20 20 20h534q20 0 20 -20v-71q0 -14 -9 -25l-350 -439h351z" glyph-name="Z"/>
<glyph horiz-adv-x="396" unicode="[" d="M348 662h-149v-637h149q20 0 20 -20v-84q0 -20 -20 -20h-260q-20 0 -20 20v845q0 20 20 20h260q20 0 20 -20v-84q0 -20 -20 -20z" glyph-name="bracketleft"/>
<glyph horiz-adv-x="418" unicode="\" d="M281 -163q-17 0 -22 17l-228 878q-5 22 17 22h88q17 0 22 -17l229 -878q3 -10 -1.5 -16t-15.5 -6h-89z" glyph-name="backslash"/>
<glyph horiz-adv-x="396" unicode="]" d="M308 786q20 0 20 -20v-845q0 -20 -20 -20h-260q-20 0 -20 20v84q0 20 20 20h149v637h-149q-20 0 -20 20v84q0 20 20 20h260z" glyph-name="bracketright"/>
<glyph horiz-adv-x="547" unicode="^" d="M494 404q6 -10 2.5 -17t-15.5 -7h-106q-16 0 -23 14l-76 149l-77 -149q-7 -14 -23 -14h-110q-12 0 -15.5 7t2.5 17l166 275q8 14 24 14h56q16 0 24 -13z" glyph-name="asciicircum"/>
<glyph horiz-adv-x="630" unicode="_" d="M74 -34q-20 0 -20 20v82q0 20 20 20h482q20 0 20 -20v-82q0 -20 -20 -20h-482z" glyph-name="underscore"/>
<glyph horiz-adv-x="298" unicode="`" d="M247 528q-9 -16 -27 -8l-191 85q-19 10 -8 27l52 91q9 17 27 6l172 -118q16 -11 7 -28z" glyph-name="grave"/>
<glyph horiz-adv-x="594" unicode="a" d="M518 460q20 0 20 -20v-420q0 -20 -20 -20h-101q-20 0 -21 19l-4 35q-58 -63 -138 -63q-96 0 -158 68t-62 171q0 102 64.5 170.5t160.5 68.5q71 0 126 -42l3 15q3 18 21 18h109zM290 134q44 0 71 27.5t26 68.5q-1 43 -27 69.5t-70 26.5q-42 0 -69.5 -27t-27.5 -69 q0 -41 27.5 -68.5t69.5 -27.5z" glyph-name="a"/>
<glyph unicode="b" d="M339 469q96 0 158 -68t62 -171q0 -102 -64.5 -170.5t-160.5 -68.5q-84 0 -147 61l-3 -33q-1 -19 -21 -19h-87q-20 0 -20 20v674q0 20 20 20h118q20 0 20 -20v-274q52 49 125 49zM303 134q43 0 70 27t27 69q0 41 -27.5 68.5t-69.5 27.5q-44 0 -70.5 -27.5t-26.5 -68.5 q0 -43 26.5 -69.5t70.5 -26.5z" glyph-name="b"/>
<glyph horiz-adv-x="487" unicode="c" d="M288 -9q-109 0 -182 69t-73 170t73 170t182 69q94 0 158 -41q16 -10 6 -31l-42 -82q-9 -17 -29 -7q-34 18 -74 18q-51 0 -81.5 -27t-30.5 -69t30.5 -69t81.5 -27q43 0 77 19q18 10 27 -8l42 -82q9 -17 -6 -27q-65 -45 -159 -45z" glyph-name="c"/>
<glyph unicode="d" d="M517 714q20 0 20 -20v-674q0 -20 -20 -20h-87q-20 0 -21 19l-3 33q-63 -61 -147 -61q-96 0 -160.5 68.5t-64.5 170.5q0 103 62 171t158 68q73 0 125 -49v274q0 20 20 20h118zM290 134q44 0 70.5 26.5t26.5 69.5q0 41 -26.5 68.5t-70.5 27.5q-42 0 -69.5 -27.5 t-27.5 -68.5q0 -42 27.5 -69t69.5 -27z" glyph-name="d"/>
<glyph horiz-adv-x="545" unicode="e" d="M513 225q0 -11 -1 -18q-3 -19 -20 -19h-300q13 -29 43.5 -47t72.5 -18q55 0 98 32q17 13 28 -6l43 -78q10 -16 -5 -28q-66 -52 -182 -52q-110 0 -183.5 69t-73.5 170t69 170t175 69q107 0 171.5 -69t64.5 -175zM283 346q-72 0 -92 -63h172l-1 4q-6 26 -27.5 42.5 t-51.5 16.5z" glyph-name="e"/>
<glyph horiz-adv-x="416" unicode="f" d="M130 0q-20 0 -20 20v307h-67q-20 0 -20 20v93q0 20 20 20h67v43q0 103 58 161.5t164 58.5q59 0 109 -26q16 -9 8 -27l-41 -84q-7 -15 -27 -10q-14 4 -30 4q-34 0 -58.5 -22t-24.5 -67v-31h113q20 0 20 -20v-93q0 -20 -20 -20h-113v-307q0 -20 -20 -20h-118z" glyph-name="f"/>
<glyph horiz-adv-x="591" unicode="g" d="M515 458q20 0 20 -20v-406q0 -105 -68.5 -170.5t-188.5 -65.5q-131 0 -210 52q-14 10 -5 27l46 78q10 18 27 8q63 -30 131 -30q48 0 79 22.5t31 57.5v28q-53 -48 -123 -48q-96 0 -158 68t-62 171q0 102 64.5 170.5t160.5 68.5q85 0 146 -59l2 29q2 19 21 19h87zM290 134 q44 0 70.5 27.5t26.5 68.5q-1 43 -27 69.5t-70 26.5q-42 0 -69.5 -27t-27.5 -69q0 -41 27.5 -68.5t69.5 -27.5z" glyph-name="g"/>
<glyph unicode="h" d="M333 469q93 0 151.5 -59.5t58.5 -155.5v-234q0 -20 -20 -20h-118q-20 0 -20 20v211q0 43 -23.5 69.5t-60.5 26.5q-39 0 -63 -26t-24 -70v-211q0 -20 -20 -20h-118q-20 0 -20 20v674q0 20 20 20h118q20 0 20 -20v-263q45 38 119 38z" glyph-name="h"/>
<glyph horiz-adv-x="270" unicode="i" d="M133 532q-42 0 -70.5 27t-28.5 69q0 41 28 67.5t71 27.5q42 1 71.5 -26t29.5 -69t-29 -69t-72 -27zM76 0q-20 0 -20 20v420q0 20 20 20h118q20 0 20 -20v-420q0 -20 -20 -20h-118z" glyph-name="i"/>
<glyph horiz-adv-x="278" unicode="j" d="M140 532q-42 0 -70.5 27t-28.5 69q0 41 28 67.5t71 27.5q42 1 71.5 -26t29.5 -69t-29 -69t-72 -27zM15 -204q-53 0 -88 13q-17 6 -11 25l30 95q5 17 25 12q12 -2 24 -2q29 0 49 20.5t20 61.5v419q0 20 20 20h118q20 0 20 -20v-416q0 -103 -56 -165.5t-151 -62.5z" glyph-name="j"/>
<glyph horiz-adv-x="552" unicode="k" d="M543 25q8 -10 5 -17.5t-16 -7.5h-155q-15 0 -25 11l-138 163v-154q0 -20 -20 -20h-118q-20 0 -20 20v674q0 20 20 20h118q20 0 20 -20v-409l130 163q9 12 24 12h147q13 0 16 -7.5t-5 -17.5l-170 -193z" glyph-name="k"/>
<glyph horiz-adv-x="270" unicode="l" d="M76 0q-20 0 -20 20v674q0 20 20 20h118q20 0 20 -20v-674q0 -20 -20 -20h-118z" glyph-name="l"/>
<glyph horiz-adv-x="892" unicode="m" d="M627 469q93 0 154 -59.5t61 -155.5v-234q0 -20 -20 -20h-118q-20 0 -20 20v211q0 43 -20.5 69.5t-54.5 26.5q-37 0 -59 -26t-22 -70v-211q0 -20 -20 -20h-118q-20 0 -20 20v211q0 43 -21 69.5t-53 26.5q-38 0 -60 -26t-22 -70v-211q0 -20 -20 -20h-118q-20 0 -20 20v420 q0 20 20 20h71q18 0 20 -19l5 -58q19 37 60 61.5t91 24.5q102 0 161 -72q52 72 143 72z" glyph-name="m"/>
<glyph unicode="n" d="M340 469q94 0 148.5 -58t54.5 -157v-234q0 -20 -20 -20h-118q-20 0 -20 20v211q0 43 -23 69.5t-60 26.5q-39 0 -63.5 -26t-24.5 -70v-211q0 -20 -20 -20h-118q-20 0 -20 20v420q0 20 20 20h71q18 0 20 -19l5 -56q21 38 64.5 61t103.5 23z" glyph-name="n"/>
<glyph horiz-adv-x="571" unicode="o" d="M286 -9q-106 0 -179.5 68.5t-73.5 170.5t73.5 170.5t179.5 68.5t179 -69t73 -170t-73 -170t-179 -69zM286 134q40 0 66.5 28t26.5 68t-26.5 68t-66.5 28q-41 0 -67.5 -28t-26.5 -68t26.5 -68t67.5 -28z" glyph-name="o"/>
<glyph unicode="p" d="M334 469q96 0 160.5 -68.5t64.5 -170.5q0 -103 -62 -171t-158 -68q-73 0 -125 49v-215q0 -20 -20 -20h-118q-20 0 -20 20v615q0 20 20 20h93q20 0 21 -19l3 -28q59 56 141 56zM303 134q42 0 69.5 27.5t27.5 68.5q0 42 -27 69t-70 27q-44 0 -70.5 -26.5t-26.5 -69.5 q0 -41 26.5 -68.5t70.5 -27.5z" glyph-name="p"/>
<glyph unicode="q" d="M517 460q20 0 20 -20v-615q0 -20 -20 -20h-118q-20 0 -20 20v215q-52 -49 -125 -49q-96 0 -158 68t-62 171q0 102 64.5 170.5t160.5 68.5q82 0 142 -57l3 29q1 19 21 19h92zM290 134q44 0 70.5 27.5t26.5 68.5q0 43 -26.5 69.5t-70.5 26.5q-42 0 -69.5 -27t-27.5 -69 q0 -41 27.5 -68.5t69.5 -27.5z" glyph-name="q"/>
<glyph horiz-adv-x="396" unicode="r" d="M363 468q19 -1 17 -22l-9 -115q-1 -21 -23 -16q-10 3 -27 3q-48 0 -77.5 -25.5t-29.5 -72.5v-200q0 -20 -20 -20h-118q-20 0 -20 20v420q0 20 20 20h91q18 0 20 -19l5 -66q11 42 51.5 68t96.5 26q16 0 23 -1z" glyph-name="r"/>
<glyph horiz-adv-x="485" unicode="s" d="M228 -9q-106 0 -185 49q-17 11 -7 28l44 80q9 18 27 7q67 -40 140 -40q37 0 37 22q0 12 -15 18.5t-56 15.5q-166 37 -166 146q0 70 55 111t147 41q107 0 186 -44q16 -9 7 -27l-42 -80q-10 -18 -28 -7q-64 34 -124 34q-38 0 -38 -22q0 -11 16 -17t67 -17q29 -6 49 -13 t47.5 -22t42.5 -42.5t15 -64.5q0 -71 -56 -113.5t-163 -42.5z" glyph-name="s"/>
<glyph horiz-adv-x="466" unicode="t" d="M300 -9q-91 0 -141 49t-50 139v148h-73q-20 0 -20 20v93q0 20 20 20h78v138q0 20 20 20h113q20 0 20 -20v-138h141q20 0 20 -20v-93q0 -20 -20 -20h-141v-129q0 -64 71 -64q22 0 51 11q19 10 27 -9l37 -81q7 -16 -10 -29q-50 -35 -143 -35z" glyph-name="t"/>
<glyph horiz-adv-x="585" unicode="u" d="M509 460q20 0 20 -20v-420q0 -20 -20 -20h-85q-18 0 -20 19l-3 35q-44 -63 -133 -63q-95 0 -156.5 59.5t-61.5 155.5v234q0 20 20 20h118q20 0 20 -20v-201q0 -43 22.5 -69.5t57.5 -26.5q38 0 60.5 26t22.5 70v201q0 20 20 20h118z" glyph-name="u"/>
<glyph horiz-adv-x="551" unicode="v" d="M521 460q11 0 15.5 -7t-0.5 -17l-197 -420q-7 -15 -23 -15h-84q-16 0 -23 15l-194 421q-10 23 15 23h128q18 0 23 -15l99 -240l95 239q6 16 23 16h123z" glyph-name="v"/>
<glyph horiz-adv-x="832" unicode="w" d="M800 460q24 0 16 -23l-169 -421q-6 -16 -23 -16h-71q-18 0 -24 15l-111 256l-111 -256q-6 -15 -24 -15h-75q-17 0 -23 16l-169 421q-8 23 16 23h131q17 0 23 -16l81 -223l98 233q5 15 23 15h65q18 0 24 -15l104 -241l71 230q5 17 22 17h126z" glyph-name="w"/>
<glyph horiz-adv-x="544" unicode="x" d="M514 24q7 -10 3 -17t-16 -7h-139q-16 0 -24 13l-70 114l-70 -114q-8 -13 -24 -13h-133q-12 0 -16 7t3 17l143 207l-135 205q-7 10 -3 17t16 7h137q16 0 24 -14l62 -106l67 107q8 13 24 13h133q12 0 16 -7t-3 -17l-143 -201z" glyph-name="x"/>
<glyph horiz-adv-x="546" unicode="y" d="M517 460q24 0 16 -23l-182 -452l-66 -164q-6 -16 -23 -16h-113q-24 0 -16 23l67 175l-183 434q-10 23 15 23h134q17 0 23 -16l94 -260l91 260q6 16 23 16h120z" glyph-name="y"/>
<glyph horiz-adv-x="504" unicode="z" d="M438 460q20 0 20 -20v-82q0 -14 -11 -25l-208 -200h206q20 0 20 -20v-93q0 -20 -20 -20h-386q-20 0 -20 20v82q0 14 11 25l208 200h-191q-20 0 -20 20v93q0 20 20 20h371z" glyph-name="z"/>
<glyph horiz-adv-x="374" unicode="{" d="M335 -102q0 -20 -21 -19q-94 5 -151 54.5t-57 129.5v167q0 29 -5.5 42.5t-22.5 13.5h-31q-20 0 -20 20v78q0 20 20 20h31q17 0 22.5 13.5t5.5 42.5v163q0 82 56.5 132t151.5 55q21 2 21 -19v-81q0 -19 -20 -21q-37 -3 -54 -21t-17 -56v-157v-17v-16t-0.5 -13.5t-2 -13.5 t-3.5 -11t-5 -11.5t-8 -9.5t-11.5 -10.5t-14.5 -8.5q8 -4 14.5 -7.5t11.5 -9.5t8 -9t5 -11t3.5 -11t2 -14t0.5 -14v-17v-18v-156q0 -39 17.5 -57.5t53.5 -21.5q20 -2 20 -21v-79z" glyph-name="braceleft"/>
<glyph horiz-adv-x="271" unicode="|" d="M88 -110q-20 0 -20 20v784q0 20 20 20h95q20 0 20 -20v-784q0 -20 -20 -20h-95z" glyph-name="bar"/>
<glyph horiz-adv-x="374" unicode="}" d="M60 -121q-21 -1 -21 19v79q0 19 20 21q36 3 53.5 21.5t17.5 57.5v156v16.5v15t0.5 13t1 12.5t2 10.5t4 10.5t6 9t8 9l10.5 7t13 8q-8 4 -14.5 8.5t-11.5 10.5t-8 9.5t-5 11.5t-3.5 11t-2 13.5t-0.5 13.5v16v17v157q0 38 -17 56t-54 21q-20 2 -20 21v81q0 21 21 19 q95 -5 151.5 -55t56.5 -132v-164q0 -28 5.5 -41.5t22.5 -13.5h31q20 0 20 -20v-78q0 -20 -20 -20h-31q-17 0 -22.5 -13.5t-5.5 -42.5v-167q0 -80 -57 -129.5t-151 -54.5z" glyph-name="braceright"/>
<glyph horiz-adv-x="623" unicode="~" d="M404 181q-48 0 -101 19t-83 19t-57 -20q-16 -13 -28 -2l-60 49q-17 14 -3 29q59 73 148 73q41 0 98.5 -19.5t87.5 -19.5t57 29q13 15 28 3l58 -47q13 -10 6 -24q-7 -12 -21 -29t-51 -38.5t-79 -21.5z" glyph-name="asciitilde"/>
<glyph horiz-adv-x="224" unicode=" " glyph-name="uni00A0"/>
<glyph horiz-adv-x="291" unicode="¡" d="M148 360q-40 0 -67.5 28t-27.5 67t27.5 66.5t67.5 27.5q38 0 66 -27.5t28 -66.5q0 -38 -28 -66.5t-66 -28.5zM76 -195q-22 0 -20 21l28 481q2 19 20 19h82q18 0 20 -19l30 -481q2 -21 -20 -21h-140z" glyph-name="exclamdown"/>
<glyph horiz-adv-x="563" unicode="¢" d="M521 153q9 -17 -4 -25q-62 -39 -121 -48v-95q0 -20 -20 -20h-107q-20 0 -20 20v99q-94 25 -153 99t-59 171t58.5 170.5t153.5 97.5v111q0 20 20 20h107q20 0 20 -20v-105q64 -12 119 -47q16 -9 6 -27l-42 -82q-10 -19 -27 -8q-45 26 -100 26q-68 0 -110.5 -38t-42.5 -98 q0 -59 42 -97.5t109 -38.5q56 0 101 26q17 11 27 -8z" glyph-name="cent"/>
<glyph horiz-adv-x="603" unicode="£" d="M543 135q20 0 20 -20v-95q0 -20 -20 -20h-474q-20 0 -20 20v95q0 20 20 20h66v107h-66q-20 0 -20 20v82q0 20 20 20h65v113q-1 106 69.5 170.5t186.5 64.5q101 0 163 -46q15 -12 5 -28l-44 -81q-9 -18 -27 -7q-39 21 -81 19q-49 0 -82.5 -28.5t-32.5 -83.5l1 -93h161 q20 0 20 -20v-82q0 -20 -20 -20h-160l1 -107h249z" glyph-name="sterling"/>
<glyph horiz-adv-x="610" unicode="¤" d="M500 247l47 -46q14 -14 0 -28l-59 -58q-14 -14 -28 0l-46 45q-46 -24 -108 -24q-59 0 -109 24l-49 -47q-14 -14 -28 0l-58 56q-14 15 -1 28l50 50q-24 47 -24 108t24 106l-50 50q-13 13 1 28l58 56q14 14 28 0l48 -48q48 25 110 25q61 0 109 -25l50 50q15 15 28 0l57 -58 q13 -15 0 -28l-49 -49q23 -48 23 -107q0 -61 -24 -108zM306 263q40 0 64 25.5t24 66.5t-24 65.5t-64 24.5q-41 0 -66.5 -25t-25.5 -65q0 -41 25.5 -66.5t66.5 -25.5z" glyph-name="currency"/>
<glyph horiz-adv-x="726" unicode="¥" d="M674 703q12 0 16 -6.5t-2 -17.5l-178 -294h79q20 0 20 -20v-72q0 -20 -20 -20h-146v-62h144q20 0 20 -20v-72q0 -20 -20 -20h-144v-79q0 -20 -20 -20h-120q-20 0 -20 20v79h-154q-20 0 -20 20v72q0 20 20 20h154v62h-152q-20 0 -20 20v72q0 20 20 20h85l-175 294 q-6 10 -2 17t16 7h140q16 0 24 -14l151 -262l150 262q7 14 24 14h130z" glyph-name="yen"/>
<glyph horiz-adv-x="274" unicode="¦" d="M90 377q-20 0 -20 20v297q0 20 20 20h94q20 0 20 -20v-297q0 -20 -20 -20h-94zM90 -109q-20 0 -20 20v306q0 20 20 20h94q20 0 20 -20v-306q0 -20 -20 -20h-94z" glyph-name="brokenbar"/>
<glyph horiz-adv-x="554" unicode="§" d="M457 229q45 -45 45 -112q0 -88 -65.5 -138.5t-166.5 -50.5q-118 0 -220 66q-15 9 -8 27l34 76q8 20 27 8q83 -48 156 -48q45 0 70.5 13.5t25.5 38.5q0 12 -6.5 21.5t-24 17.5t-28 12t-39 11.5t-36.5 9.5q-30 8 -54 18.5t-50 28.5t-40.5 48t-14.5 69q0 69 42 121 q-42 40 -42 106q0 86 63 140t162 54q109 0 198 -56q15 -9 7 -27l-37 -74q-9 -18 -27 -8q-67 38 -131 38q-41 0 -63 -15.5t-22 -37.5q0 -21 22 -33t70 -27q31 -9 50 -15.5t50.5 -22.5t50 -33.5t33 -46.5t14.5 -64q0 -65 -45 -115zM212 360q0 -20 21.5 -33.5t70.5 -26.5 q2 0 7 -2t8 -2q36 14 36 42q0 34 -104 61l-9 3q-30 -15 -30 -42z" glyph-name="section"/>
<glyph horiz-adv-x="443" unicode="¨" d="M108 545q-37 0 -62 24.5t-26 62.5t25 62.5t63 24.5t62 -24.5t26 -62.5t-25 -62.5t-63 -24.5zM335 542q-37 0 -62 24.5t-26 62.5t25 62.5t63 24.5t62 -24.5t26 -62.5t-25 -62.5t-63 -24.5z" glyph-name="dieresis"/>
<glyph horiz-adv-x="806" unicode="©" d="M404 -9q-157 0 -260.5 103.5t-103.5 255.5q0 154 103.5 258t260.5 104q156 0 258.5 -102.5t102.5 -259.5q0 -155 -102.5 -257t-258.5 -102zM404 101q105 0 174 71t69 177q0 109 -68.5 180.5t-174.5 71.5q-105 0 -175 -72t-70 -180q0 -105 70 -176.5t175 -71.5zM419 175 q-85 0 -135 48t-50 125q0 79 50 126.5t135 47.5q49 0 91 -22q17 -9 11 -26l-15 -48q-6 -19 -26 -11q-30 13 -61 13q-39 0 -61.5 -22t-22.5 -58q0 -35 23 -56.5t62 -21.5q31 0 63 13q20 9 26 -11l15 -52q5 -18 -11 -25q-43 -20 -94 -20z" glyph-name="copyright"/>
<glyph horiz-adv-x="440" unicode="ª" d="M186 506q-61 0 -101 44t-40 109q0 67 41.5 112t103.5 45q51 0 86 -32l1 7q1 19 21 19h48q20 0 20 -20v-258q0 -20 -20 -20h-44q-19 0 -21 19l-1 19q-37 -44 -94 -44zM209 591q30 0 49 19.5t19 49.5t-19 49t-49 19t-48.5 -19.5t-18.5 -48.5q0 -30 18.5 -49.5t48.5 -19.5z " glyph-name="ordfeminine"/>
<glyph horiz-adv-x="526" unicode="«" d="M162 69q-16 0 -25 13l-98 148q-9 15 0 28l99 153q9 13 24 13h96q12 0 16 -7t-3 -17l-104 -156l103 -151q7 -11 3.5 -17.5t-15.5 -6.5h-96zM360 69q-16 0 -25 13l-98 148q-9 15 0 28l99 153q9 13 24 13h96q12 0 16 -7t-3 -17l-105 -156l104 -151q7 -11 3 -17.5t-16 -6.5 h-95z" glyph-name="guillemotleft"/>
<glyph horiz-adv-x="559" unicode="¬" d="M474 368q20 0 20 -20v-186q0 -20 -20 -20h-84q-20 0 -20 20v85h-289q-20 0 -20 20v81q0 20 20 20h393z" glyph-name="logicalnot"/>
<glyph horiz-adv-x="479" unicode="®" d="M240 820q88 0 149.5 -61.5t61.5 -149.5t-61.5 -149.5t-149.5 -61.5t-150 61.5t-62 149.5t62 149.5t150 61.5zM240 463q59 0 101 42.5t42 103.5q0 60 -42 102.5t-101 42.5q-60 0 -102 -42.5t-42 -102.5q0 -61 42 -103.5t102 -42.5zM333 632q0 -46 -40 -68l27 -39 q7 -10 3 -17t-16 -7h-36q-16 0 -24 13l-26 41h-6v-34q0 -20 -20 -20h-31q-20 0 -20 20v174q0 20 20 20h76q44 0 68.5 -24.5t24.5 -58.5zM257 632q0 22 -26 22h-16v-43h16q26 0 26 21z" glyph-name="registered"/>
<glyph horiz-adv-x="338" unicode="¯" d="M30 545q-20 0 -20 20v81q0 20 20 20h278q20 0 20 -20v-81q0 -20 -20 -20h-278z" glyph-name="macron"/>
<glyph horiz-adv-x="465" unicode="°" d="M233 371q-91 0 -146 54.5t-55 144.5q0 89 55 142.5t146 53.5t145.5 -53.5t54.5 -142.5q0 -90 -54.5 -144.5t-145.5 -54.5zM233 477q41 0 64.5 25t23.5 68q0 40 -23.5 64t-64.5 24t-64.5 -24t-23.5 -64q0 -43 23.5 -68t64.5 -25z" glyph-name="degree"/>
<glyph horiz-adv-x="524" unicode="±" d="M448 445q20 0 20 -20v-79q0 -20 -20 -20h-131v-138q0 -20 -20 -20h-72q-20 0 -20 20v138h-129q-20 0 -20 20v79q0 20 20 20h129v137q0 20 20 20h72q20 0 20 -20v-137h131zM448 109q20 0 20 -20v-72q0 -20 -20 -20h-372q-20 0 -20 20v72q0 20 20 20h372z" glyph-name="plusminus"/>
<glyph horiz-adv-x="414" unicode="²" d="M69 349q-20 0 -20 20v32q0 16 14 24q86 57 122 98q37 46 29 85q-5 19 -24.5 31t-47.5 12q-20 0 -42 -6q-18 -4 -25 12l-23 55q-7 18 8 27q48 29 120 29q80 0 127.5 -38.5t47.5 -105.5q0 -54 -36 -100q-22 -28 -69 -67h92q20 0 20 -20v-68q0 -20 -20 -20h-273z" glyph-name="uni00B2"/>
<glyph horiz-adv-x="376" unicode="³" d="M231 592q46 -6 74.5 -37t28.5 -76q0 -64 -44.5 -99.5t-118.5 -35.5q-73 0 -128 23q-18 8 -10 26l22 53q7 17 26 11q33 -12 64 -12q66 0 66 42q0 37 -56 37q-17 0 -35 -4t-25 12l-12 29q-6 17 7 27l90 68h-124q-20 0 -20 20v61q0 20 20 20h245q20 0 20 -20v-41 q0 -14 -11 -25l-85 -78z" glyph-name="uni00B3"/>
<glyph horiz-adv-x="332" unicode="´" d="M78 520q-18 -8 -27 8l-32 55q-9 17 7 28l172 118q18 11 27 -6l52 -91q11 -17 -8 -27z" glyph-name="acute"/>
<glyph horiz-adv-x="731" unicode="¶" d="M627 703q20 0 20 -20v-732q0 -20 -20 -20h-84q-20 0 -20 20v636h-68v-636q0 -20 -20 -20h-85q-20 0 -20 20v228q-142 1 -220.5 71.5t-78.5 194.5q0 118 79.5 187.5t219.5 70.5h297zM145 445q0 -76 44.5 -112.5t140.5 -37.5v292q-185 -1 -185 -142z" glyph-name="paragraph"/>
<glyph horiz-adv-x="275" unicode="·" d="M138 261q-40 0 -67.5 27.5t-27.5 66.5t27.5 66.5t67.5 27.5t67 -27.5t27 -66.5t-27.5 -66.5t-66.5 -27.5z" glyph-name="periodcentered"/>
<glyph horiz-adv-x="272" unicode="¸" d="M129 -242q-55 0 -103 29q-16 9 -8 27l16 31q9 17 27 8q28 -14 52 -14q48 0 48 34q0 36 -55 36q-13 0 -30 -3q-8 -2 -12 4l-5 6q-5 6 -1 13l35 95h85l-24 -59q50 0 79 -27.5t29 -71.5q0 -50 -36.5 -79t-96.5 -29z" glyph-name="cedilla"/>
<glyph horiz-adv-x="299" unicode="¹" d="M140 349q-20 0 -20 20v248l-55 -20q-18 -8 -25 13l-20 67q-5 20 13 26l145 52q11 4 25 4h14q20 0 20 -20v-370q0 -20 -20 -20h-77z" glyph-name="uni00B9"/>
<glyph horiz-adv-x="404" unicode="º" d="M203 516q-72 0 -116 42t-44 113t44 113.5t117 41.5q71 -1 114 -43t43 -112t-43.5 -112.5t-114.5 -42.5zM203 602q30 0 48 19t18 50t-18 50t-48 19q-31 0 -49.5 -19t-18.5 -50t18.5 -50t49.5 -19z" glyph-name="ordmasculine"/>
<glyph horiz-adv-x="528" unicode="»" d="M71 69q-12 0 -16 7t3 17l106 151l-106 156q-7 10 -3.5 17t15.5 7h99q15 0 24 -13l99 -153q9 -14 0 -28l-98 -148q-9 -13 -25 -13h-98zM268 69q-12 0 -16 7t3 17l106 151l-106 156q-7 10 -3.5 17t15.5 7h99q15 0 24 -13l99 -153q9 -14 0 -28l-98 -148q-9 -13 -25 -13h-98z " glyph-name="guillemotright"/>
<glyph horiz-adv-x="831" unicode="¼" d="M294 11q-9 -19 -27 -10l-74 35q-17 8 -9 26l299 632q8 19 27 9l75 -39q17 -9 9 -27zM152 294q-20 0 -20 20v248l-55 -20q-19 -6 -25 13l-20 67q-6 20 13 26l145 51q11 4 25 4h14q20 0 20 -20v-369q0 -20 -20 -20h-77zM667 0q-20 0 -20 20v58h-192q-20 0 -20 20v38 q0 12 5 25l99 244q8 18 25 12l61 -21q19 -6 12 -26l-74 -192h84v94q0 20 20 20h69q20 0 20 -20v-94h20q20 0 20 -20v-60q0 -20 -20 -20h-20v-58q0 -20 -20 -20h-69z" glyph-name="onequarter"/>
<glyph horiz-adv-x="874" unicode="½" d="M294 11q-9 -19 -27 -10l-74 35q-17 8 -9 26l299 632q8 19 27 9l75 -39q17 -9 9 -27zM152 294q-20 0 -20 20v248l-55 -20q-19 -6 -25 13l-20 67q-6 20 13 26l145 51q11 4 25 4h14q20 0 20 -20v-369q0 -20 -20 -20h-77zM539 0q-20 0 -20 20v32q0 16 14 24q79 47 121 98 q31 39 31 71q0 26 -19.5 41.5t-54.5 15.5q-20 0 -42 -6q-18 -5 -25 12l-22 55q-7 19 8 27q48 29 119 29q79 0 127.5 -38.5t48.5 -105.5q0 -52 -37 -100q-34 -44 -62 -67h86q20 0 20 -20v-68q0 -20 -20 -20h-273z" glyph-name="onehalf"/>
<glyph horiz-adv-x="859" unicode="¾" d="M327 11q-9 -19 -27 -10l-74 35q-17 8 -9 26l299 632q8 19 27 9l75 -39q17 -9 9 -27zM234 538q100 -21 100 -110q0 -67 -44.5 -102.5t-118.5 -35.5q-77 0 -128 22q-19 8 -10 27l22 53q7 17 26 11q33 -12 64 -12q66 0 66 40q0 39 -56 39q-17 0 -35 -4t-25 12l-12 29 q-6 17 7 27l90 68h-124q-20 0 -20 20v61q0 20 20 20h245q20 0 20 -20v-41q0 -15 -11 -25l-88 -77q4 0 12 -2zM700 0q-20 0 -20 20v58h-192q-20 0 -20 20v38q0 12 5 25l99 244q8 18 25 12l61 -21q19 -6 12 -26l-74 -192h84v94q0 20 20 20h69q20 0 20 -20v-94h20q20 0 20 -20 v-60q0 -20 -20 -20h-20v-58q0 -20 -20 -20h-69z" glyph-name="threequarters"/>
<glyph horiz-adv-x="463" unicode="¿" d="M276 547q37 0 62.5 -26t25.5 -62t-25.5 -61t-62.5 -25t-61.5 25t-24.5 61q0 37 24.5 62.5t61.5 25.5zM329 332q20 0 20 -20v-20q0 -46 -16.5 -84t-39.5 -63.5t-46 -47t-39.5 -44t-16.5 -45.5q0 -70 84 -70q52 0 100 25q18 9 27 -8l40 -82q8 -18 -9 -27q-87 -45 -186 -45 q-101 0 -158.5 52t-57.5 142q0 46 18 82.5t43.5 61t51.5 48t44 55t18 69.5v1q0 20 20 20h103z" glyph-name="questiondown"/>
<glyph horiz-adv-x="714" unicode="À" d="M227 814q-20 5 -13 25l34 101q7 20 26 12l215 -93q18 -8 12 -26l-20 -61q-6 -18 -25 -13zM710 23q4 -10 -0.5 -16.5t-15.5 -6.5h-135q-17 0 -23 16l-44 109h-271l-45 -109q-6 -16 -23 -16h-135q-11 0 -15.5 6.5t-0.5 16.5l296 665q6 15 24 15h71q18 0 24 -15zM356 464 l-82 -198h165z" glyph-name="Agrave"/>
<glyph horiz-adv-x="714" unicode="Á" d="M235 768l-22 60q-6 18 10 26l212 100q19 9 26 -10l38 -100q8 -20 -12 -26l-227 -63q-19 -6 -25 13zM710 23q4 -10 -0.5 -16.5t-15.5 -6.5h-135q-17 0 -23 16l-44 109h-271l-45 -109q-6 -16 -23 -16h-135q-11 0 -15.5 6.5t-0.5 16.5l296 665q6 15 24 15h71q18 0 24 -15z M356 464l-82 -198h165z" glyph-name="Aacute"/>
<glyph horiz-adv-x="714" unicode="Â" d="M184 758q-13 0 -16 7t5 17l117 145q9 12 24 12h90q15 0 24 -12l113 -145q8 -10 4.5 -17t-16.5 -7h-101q-17 0 -25 11l-47 57l-46 -56q-9 -12 -24 -12h-102zM710 23q4 -10 -0.5 -16.5t-15.5 -6.5h-135q-17 0 -23 16l-44 109h-271l-45 -109q-6 -16 -23 -16h-135 q-11 0 -15.5 6.5t-0.5 16.5l296 665q6 15 24 15h71q18 0 24 -15zM356 464l-82 -198h165z" glyph-name="Acircumflex"/>
<glyph horiz-adv-x="714" unicode="Ã" d="M149 826q-15 13 -5 28q52 75 139 75q33 0 79 -24.5t70 -24.5q29 0 50 32q11 20 27 7l58 -47q15 -12 5 -30q-7 -15 -21.5 -31.5t-48 -35t-72.5 -18.5q-37 0 -80 24t-67 24q-30 0 -49 -23q-13 -17 -26 -5zM710 23q4 -10 -0.5 -16.5t-15.5 -6.5h-135q-17 0 -23 16l-44 109 h-271l-45 -109q-6 -16 -23 -16h-135q-11 0 -15.5 6.5t-0.5 16.5l296 665q6 15 24 15h71q18 0 24 -15zM356 464l-82 -198h165z" glyph-name="Atilde"/>
<glyph horiz-adv-x="714" unicode="Ä" d="M233 766q-37 0 -62 24.5t-26 62.5t25 62.5t63 24.5t62 -24.5t26 -62.5t-25 -62.5t-63 -24.5zM480 763q-37 0 -63 24.5t-25 62.5q-1 38 25 62.5t63 24.5t63 -24.5t25 -62.5q1 -38 -25 -62.5t-63 -24.5zM710 23q4 -10 -0.5 -16.5t-15.5 -6.5h-135q-17 0 -23 16l-44 109 h-271l-45 -109q-6 -16 -23 -16h-135q-11 0 -15.5 6.5t-0.5 16.5l296 665q6 15 24 15h71q18 0 24 -15zM356 464l-82 -198h165z" glyph-name="Adieresis"/>
<glyph horiz-adv-x="714" unicode="Å" d="M357 734q-57 0 -94 34.5t-37 89.5q0 54 37 89t94 35t93.5 -35t36.5 -89q0 -55 -36.5 -89.5t-93.5 -34.5zM357 902q-18 0 -29 -11.5t-11 -31.5q0 -19 11.5 -31.5t28.5 -12.5q18 0 29 12.5t11 31.5q0 20 -11 31.5t-29 11.5zM710 23q4 -10 -0.5 -16.5t-15.5 -6.5h-135 q-17 0 -23 16l-44 109h-271l-45 -109q-6 -16 -23 -16h-135q-11 0 -15.5 6.5t-0.5 16.5l296 665q6 15 24 15h71q18 0 24 -15zM356 464l-82 -198h165z" glyph-name="Aring"/>
<glyph horiz-adv-x="942" unicode="Æ" d="M10 0q-11 0 -15.5 7t0.5 17l342 665q7 14 23 14h510q20 0 20 -20v-108q0 -20 -20 -20h-274v-132l231 2q20 0 20 -20v-107q0 -20 -20 -20l-231 -3v-128h274q20 0 20 -20v-107q0 -20 -20 -20h-423q-20 0 -20 20v114h-202l-60 -119q-7 -15 -23 -15h-132zM296 275h131v274z " glyph-name="AE"/>
<glyph horiz-adv-x="670" unicode="Ç" d="M641 78q10 -18 -6 -28q-65 -46 -172 -57l-11 -27q44 -3 70.5 -28.5t26.5 -64.5q0 -51 -36.5 -82.5t-96.5 -31.5q-56 0 -102 29q-16 9 -8 27l15 31q9 17 27 8q21 -10 46 -14q23 -3 39 6.5t16 24.5q0 19 -20.5 31t-65.5 5q-7 -1 -11 4l-5 6q-4 6 -1 14l23 62 q-150 16 -240 116t-90 243q0 154 104 257t273 103q128 0 219 -59q15 -11 6 -28l-54 -98q-9 -18 -27 -7q-63 34 -137 34q-96 0 -153 -54.5t-57 -147.5t57 -148t153 -55q74 0 137 34q18 10 27 -7z" glyph-name="Ccedilla"/>
<glyph horiz-adv-x="629" unicode="È" d="M196 814q-20 5 -13 25l34 101q7 20 26 12l215 -93q18 -8 12 -26l-20 -61q-6 -18 -25 -13zM557 147q20 0 20 -20v-107q0 -20 -20 -20h-459q-20 0 -20 20v663q0 20 20 20h454q20 0 20 -20v-108q0 -20 -20 -20h-306v-127h268q20 0 20 -20v-108q0 -20 -20 -20h-268v-133h311z " glyph-name="Egrave"/>
<glyph horiz-adv-x="629" unicode="É" d="M204 768l-22 60q-6 18 10 26l212 100q19 9 26 -10l38 -100q8 -20 -12 -26l-227 -63q-19 -6 -25 13zM557 147q20 0 20 -20v-107q0 -20 -20 -20h-459q-20 0 -20 20v663q0 20 20 20h454q20 0 20 -20v-108q0 -20 -20 -20h-306v-127h268q20 0 20 -20v-108q0 -20 -20 -20h-268 v-133h311z" glyph-name="Eacute"/>
<glyph horiz-adv-x="629" unicode="Ê" d="M153 758q-13 0 -16 7t5 17l117 145q9 12 24 12h90q15 0 24 -12l113 -145q8 -10 4.5 -17t-16.5 -7h-101q-17 0 -25 11l-47 57l-46 -56q-9 -12 -24 -12h-102zM557 147q20 0 20 -20v-107q0 -20 -20 -20h-459q-20 0 -20 20v663q0 20 20 20h454q20 0 20 -20v-108 q0 -20 -20 -20h-306v-127h268q20 0 20 -20v-108q0 -20 -20 -20h-268v-133h311z" glyph-name="Ecircumflex"/>
<glyph horiz-adv-x="629" unicode="Ë" d="M202 766q-37 0 -62 24.5t-26 62.5t25 62.5t63 24.5t62 -24.5t26 -62.5t-25 -62.5t-63 -24.5zM449 763q-37 0 -63 24.5t-25 62.5q-1 38 25 62.5t63 24.5t63 -24.5t25 -62.5q1 -38 -25 -62.5t-63 -24.5zM557 147q20 0 20 -20v-107q0 -20 -20 -20h-459q-20 0 -20 20v663 q0 20 20 20h454q20 0 20 -20v-108q0 -20 -20 -20h-306v-127h268q20 0 20 -20v-108q0 -20 -20 -20h-268v-133h311z" glyph-name="Edieresis"/>
<glyph horiz-adv-x="324" unicode="Ì" d="M286 772q-6 -18 -25 -13l-229 55q-20 5 -13 25l34 101q7 20 26 12l215 -93q18 -8 12 -26zM98 0q-20 0 -20 20v663q0 20 20 20h128q20 0 20 -20v-663q0 -20 -20 -20h-128z" glyph-name="Igrave"/>
<glyph horiz-adv-x="324" unicode="Í" d="M65 755q-19 -6 -25 13l-22 60q-6 18 10 26l212 100q19 9 26 -10l38 -100q8 -20 -12 -26zM98 0q-20 0 -20 20v663q0 20 20 20h128q20 0 20 -20v-663q0 -20 -20 -20h-128z" glyph-name="Iacute"/>
<glyph horiz-adv-x="324" unicode="Î" d="M346 782q8 -10 4.5 -17t-16.5 -7h-101q-17 0 -25 11l-47 57l-46 -56q-9 -12 -24 -12h-102q-13 0 -16 7t5 17l117 145q9 12 24 12h90q15 0 24 -12zM226 703q20 0 20 -20v-663q0 -20 -20 -20h-128q-20 0 -20 20v663q0 20 20 20h128z" glyph-name="Icircumflex"/>
<glyph horiz-adv-x="324" unicode="Ï" d="M38 766q-37 0 -62 24.5t-26 62.5t25 62.5t63 24.5t62 -24.5t26 -62.5t-25 -62.5t-63 -24.5zM285 763q-37 0 -63 24.5t-25 62.5q-1 38 25 62.5t63 24.5t63 -24.5t25 -62.5q1 -38 -25 -62.5t-63 -24.5zM98 0q-20 0 -20 20v663q0 20 20 20h128q20 0 20 -20v-663 q0 -20 -20 -20h-128z" glyph-name="Idieresis"/>
<glyph horiz-adv-x="775" unicode="Ð" d="M364 703q167 0 268.5 -96.5t101.5 -254.5t-102 -255t-268 -97h-266q-20 0 -20 20v281h-52q-20 0 -20 20v67q0 20 20 20h52v275q0 20 20 20h266zM354 148q98 0 153.5 55t55.5 147q0 94 -55.5 149.5t-153.5 55.5h-108v-147h125q20 0 20 -20v-67q0 -20 -20 -20h-125v-153 h108z" glyph-name="Eth"/>
<glyph horiz-adv-x="810" unicode="Ñ" d="M187 826q-15 13 -5 28q52 75 139 75q33 0 79 -24.5t70 -24.5q29 0 50 32q11 20 27 7l58 -47q15 -12 5 -30q-7 -15 -21.5 -31.5t-48 -35t-72.5 -18.5q-37 0 -80 24t-67 24q-30 0 -49 -23q-13 -17 -26 -5zM711 703q20 0 20 -20v-672q0 -20 -20 -20h-58q-14 0 -25 11 l-385 412v-394q0 -20 -20 -20h-124q-20 0 -20 20v670q0 20 20 20h58q14 0 25 -11l384 -410v394q0 20 20 20h125z" glyph-name="Ntilde"/>
<glyph horiz-adv-x="823" unicode="Ò" d="M535 772q-6 -18 -25 -13l-229 55q-20 5 -13 25l34 101q7 20 26 12l215 -93q18 -8 12 -26zM413 -9q-161 0 -267.5 103.5t-106.5 255.5q0 154 106.5 258t267.5 104t266 -102.5t105 -259.5q0 -155 -105.5 -257t-265.5 -102zM413 146q86 0 142.5 58.5t56.5 145.5 q0 89 -56.5 147.5t-142.5 58.5q-87 0 -144.5 -59t-57.5 -147q0 -87 57.5 -145.5t144.5 -58.5z" glyph-name="Ograve"/>
<glyph horiz-adv-x="823" unicode="Ó" d="M314 755q-19 -6 -25 13l-22 60q-6 18 10 26l212 100q19 9 26 -10l38 -100q8 -20 -12 -26zM413 -9q-161 0 -267.5 103.5t-106.5 255.5q0 154 106.5 258t267.5 104t266 -102.5t105 -259.5q0 -155 -105.5 -257t-265.5 -102zM413 146q86 0 142.5 58.5t56.5 145.5 q0 89 -56.5 147.5t-142.5 58.5q-87 0 -144.5 -59t-57.5 -147q0 -87 57.5 -145.5t144.5 -58.5z" glyph-name="Oacute"/>
<glyph horiz-adv-x="823" unicode="Ô" d="M238 758q-13 0 -16 7t5 17l117 145q9 12 24 12h90q15 0 24 -12l113 -145q8 -10 4.5 -17t-16.5 -7h-101q-17 0 -25 11l-47 57l-46 -56q-9 -12 -24 -12h-102zM413 712q161 0 266 -102.5t105 -259.5q0 -155 -105.5 -257t-265.5 -102q-161 0 -267.5 103.5t-106.5 255.5 q0 154 106.5 258t267.5 104zM413 146q86 0 142.5 58.5t56.5 145.5q0 89 -56.5 147.5t-142.5 58.5q-87 0 -144.5 -59t-57.5 -147q0 -87 57.5 -145.5t144.5 -58.5z" glyph-name="Ocircumflex"/>
<glyph horiz-adv-x="823" unicode="Õ" d="M484 757q-37 0 -80 24t-67 24q-30 0 -49 -23q-13 -17 -26 -5l-59 49q-15 13 -5 28q52 75 139 75q33 0 79 -24.5t70 -24.5q29 0 50 32q11 20 27 7l58 -47q15 -12 5 -30q-7 -15 -21.5 -31.5t-48 -35t-72.5 -18.5zM413 -9q-161 0 -267.5 103.5t-106.5 255.5q0 154 106.5 258 t267.5 104t266 -102.5t105 -259.5q0 -155 -105.5 -257t-265.5 -102zM413 146q86 0 142.5 58.5t56.5 145.5q0 89 -56.5 147.5t-142.5 58.5q-87 0 -144.5 -59t-57.5 -147q0 -87 57.5 -145.5t144.5 -58.5z" glyph-name="Otilde"/>
<glyph horiz-adv-x="823" unicode="Ö" d="M287 766q-37 0 -62 24.5t-26 62.5t25 62.5t63 24.5t62 -24.5t26 -62.5t-25 -62.5t-63 -24.5zM534 763q-37 0 -63 24.5t-25 62.5q-1 38 25 62.5t63 24.5t63 -24.5t25 -62.5q1 -38 -25 -62.5t-63 -24.5zM413 -9q-161 0 -267.5 103.5t-106.5 255.5q0 154 106.5 258 t267.5 104t266 -102.5t105 -259.5q0 -155 -105.5 -257t-265.5 -102zM413 146q86 0 142.5 58.5t56.5 145.5q0 89 -56.5 147.5t-142.5 58.5q-87 0 -144.5 -59t-57.5 -147q0 -87 57.5 -145.5t144.5 -58.5z" glyph-name="Odieresis"/>
<glyph horiz-adv-x="536" unicode="×" d="M355 292l124 -127q13 -15 0 -28l-59 -58q-15 -15 -28 0l-125 127l-126 -124q-15 -15 -28 0l-59 60q-13 15 0 28l126 124l-124 127q-13 15 0 28l60 59q15 15 28 0l124 -127l129 126q15 15 28 0l59 -61q13 -15 0 -28z" glyph-name="multiply"/>
<glyph horiz-adv-x="823" unicode="Ø" d="M682 606q102 -102 102 -256q0 -155 -105.5 -257t-265.5 -102q-93 0 -170 37l-47 -62q-12 -17 -28 -4l-64 47q-15 12 -4 28l44 58q-105 103 -105 255q0 154 106.5 258t267.5 104q94 0 171 -37l45 59q12 17 28 4l63 -48q15 -12 4 -28zM211 350q0 -67 36 -119l237 313 q-31 12 -71 12q-87 0 -144.5 -59t-57.5 -147zM413 146q86 0 142.5 58.5t56.5 145.5q0 68 -34 119l-236 -311q33 -12 71 -12z" glyph-name="Oslash"/>
<glyph horiz-adv-x="774" unicode="Ù" d="M510 772q-6 -18 -25 -13l-229 55q-20 5 -13 25l34 101q7 20 26 12l215 -93q18 -8 12 -26zM386 -9q-146 0 -231.5 82.5t-85.5 235.5v374q0 20 20 20h128q20 0 20 -20v-387q0 -65 37.5 -110t111.5 -45q75 0 113 45t38 110v387q0 20 20 20h128q20 0 20 -20v-374 q0 -154 -86 -236t-233 -82z" glyph-name="Ugrave"/>
<glyph horiz-adv-x="774" unicode="Ú" d="M289 755q-19 -6 -25 13l-22 60q-6 18 10 26l212 100q19 9 26 -10l38 -100q8 -20 -12 -26zM386 -9q-146 0 -231.5 82.5t-85.5 235.5v374q0 20 20 20h128q20 0 20 -20v-387q0 -65 37.5 -110t111.5 -45q75 0 113 45t38 110v387q0 20 20 20h128q20 0 20 -20v-374 q0 -154 -86 -236t-233 -82z" glyph-name="Uacute"/>
<glyph horiz-adv-x="774" unicode="Û" d="M213 758q-13 0 -16 7t5 17l117 145q9 12 24 12h90q15 0 24 -12l113 -145q8 -10 4.5 -17t-16.5 -7h-101q-17 0 -25 11l-47 57l-46 -56q-9 -12 -24 -12h-102zM685 703q20 0 20 -20v-374q0 -154 -86 -236t-233 -82q-146 0 -231.5 82.5t-85.5 235.5v374q0 20 20 20h128 q20 0 20 -20v-387q0 -65 37.5 -110t111.5 -45q75 0 113 45t38 110v387q0 20 20 20h128z" glyph-name="Ucircumflex"/>
<glyph horiz-adv-x="774" unicode="Ü" d="M262 766q-37 0 -62 24.5t-26 62.5t25 62.5t63 24.5t62 -24.5t26 -62.5t-25 -62.5t-63 -24.5zM509 763q-37 0 -63 24.5t-25 62.5q-1 38 25 62.5t63 24.5t63 -24.5t25 -62.5q1 -38 -25 -62.5t-63 -24.5zM386 -9q-146 0 -231.5 82.5t-85.5 235.5v374q0 20 20 20h128 q20 0 20 -20v-387q0 -65 37.5 -110t111.5 -45q75 0 113 45t38 110v387q0 20 20 20h128q20 0 20 -20v-374q0 -154 -86 -236t-233 -82z" glyph-name="Udieresis"/>
<glyph horiz-adv-x="690" unicode="Ý" d="M230 768l-22 60q-6 18 10 26l212 100q19 9 26 -10l38 -100q8 -20 -12 -26l-227 -63q-19 -6 -25 13zM659 703q12 0 16 -7t-2 -17l-244 -405v-254q0 -20 -20 -20h-129q-20 0 -20 20v253l-241 406q-6 10 -2 17t16 7h157q17 0 24 -14l138 -249l137 249q7 14 24 14h146z" glyph-name="Yacute"/>
<glyph horiz-adv-x="676" unicode="Þ" d="M341 608q139 0 219.5 -73.5t80.5 -189.5t-80.5 -189.5t-219.5 -73.5h-87v-62q0 -20 -20 -20h-136q-20 0 -20 20v663q0 20 20 20h136q20 0 20 -20v-75h87zM330 241q63 0 97.5 31.5t34.5 72.5t-34.5 72.5t-97.5 31.5h-76v-208h76z" glyph-name="Thorn"/>
<glyph horiz-adv-x="584" unicode="ß" d="M454 373q116 -51 116 -172q0 -93 -54.5 -151.5t-151.5 -58.5q-59 0 -103 13q-17 5 -13 24l21 96q4 19 24 14q15 -4 40 -4q33 0 55.5 19t22.5 55q0 35 -25.5 54t-68.5 19h-31q-20 0 -20 20v80q0 20 18 20q36 0 56 24.5t20 57.5t-21 53.5t-53 20.5q-31 0 -51 -20t-20 -52 v-465q0 -20 -20 -20h-119q-20 0 -20 20v476q0 92 64 154t164 62q103 0 163 -60t60 -148q0 -80 -53 -131z" glyph-name="germandbls"/>
<glyph horiz-adv-x="594" unicode="à" d="M187 605q-19 10 -8 27l52 91q9 17 27 6l172 -118q16 -11 7 -28l-32 -55q-9 -16 -27 -8zM518 460q20 0 20 -20v-420q0 -20 -20 -20h-101q-20 0 -21 19l-4 35q-58 -63 -138 -63q-96 0 -158 68t-62 171q0 102 64.5 170.5t160.5 68.5q71 0 126 -42l3 15q3 18 21 18h109z M290 134q44 0 71 27.5t26 68.5q-1 43 -27 69.5t-70 26.5q-42 0 -69.5 -27t-27.5 -69q0 -41 27.5 -68.5t69.5 -27.5z" glyph-name="agrave"/>
<glyph horiz-adv-x="594" unicode="á" d="M213 528l-32 55q-9 17 7 28l172 118q18 11 27 -6l52 -91q11 -17 -8 -27l-191 -85q-18 -8 -27 8zM518 460q20 0 20 -20v-420q0 -20 -20 -20h-101q-20 0 -21 19l-4 35q-58 -63 -138 -63q-96 0 -158 68t-62 171q0 102 64.5 170.5t160.5 68.5q71 0 126 -42l3 15q3 18 21 18 h109zM290 134q44 0 71 27.5t26 68.5q-1 43 -27 69.5t-70 26.5q-42 0 -69.5 -27t-27.5 -69q0 -41 27.5 -68.5t69.5 -27.5z" glyph-name="aacute"/>
<glyph horiz-adv-x="594" unicode="â" d="M154 531q-12 0 -16 7t3 17l101 150q9 13 24 13h89q15 0 24 -13l97 -150q7 -10 3 -17t-16 -7h-83q-14 0 -24 13l-47 67l-47 -67q-9 -13 -24 -13h-84zM518 460q20 0 20 -20v-420q0 -20 -20 -20h-101q-20 0 -21 19l-4 35q-58 -63 -138 -63q-96 0 -158 68t-62 171 q0 102 64.5 170.5t160.5 68.5q71 0 126 -42l3 15q3 18 21 18h109zM290 134q44 0 71 27.5t26 68.5q-1 43 -27 69.5t-70 26.5q-42 0 -69.5 -27t-27.5 -69q0 -41 27.5 -68.5t69.5 -27.5z" glyph-name="acircumflex"/>
<glyph horiz-adv-x="594" unicode="ã" d="M111 605q-14 12 -5 28q46 80 123 80q38 0 79.5 -23t59.5 -23q27 0 49 26q13 17 27 6l59 -48q14 -12 6 -28q-4 -9 -10.5 -18t-22.5 -27.5t-42 -30t-57 -11.5q-36 0 -74 22.5t-57 22.5q-30 0 -48 -20q-14 -16 -27 -5zM518 460q20 0 20 -20v-420q0 -20 -20 -20h-101 q-20 0 -21 19l-4 35q-58 -63 -138 -63q-96 0 -158 68t-62 171q0 102 64.5 170.5t160.5 68.5q71 0 126 -42l3 15q3 18 21 18h109zM290 134q44 0 71 27.5t26 68.5q-1 43 -27 69.5t-70 26.5q-42 0 -69.5 -27t-27.5 -69q0 -41 27.5 -68.5t69.5 -27.5z" glyph-name="atilde"/>
<glyph horiz-adv-x="594" unicode="ä" d="M195 545q-37 0 -62 24.5t-26 62.5t25 62.5t63 24.5t62 -24.5t26 -62.5t-25 -62.5t-63 -24.5zM422 542q-37 0 -62 24.5t-26 62.5t25 62.5t63 24.5t62 -24.5t26 -62.5t-25 -62.5t-63 -24.5zM518 460q20 0 20 -20v-420q0 -20 -20 -20h-101q-20 0 -21 19l-4 35 q-58 -63 -138 -63q-96 0 -158 68t-62 171q0 102 64.5 170.5t160.5 68.5q71 0 126 -42l3 15q3 18 21 18h109zM290 134q44 0 71 27.5t26 68.5q-1 43 -27 69.5t-70 26.5q-42 0 -69.5 -27t-27.5 -69q0 -41 27.5 -68.5t69.5 -27.5z" glyph-name="adieresis"/>
<glyph horiz-adv-x="594" unicode="å" d="M309 512q-57 0 -94 34.5t-37 89.5q0 54 37 89t94 35t93.5 -35t36.5 -89q0 -55 -36.5 -89.5t-93.5 -34.5zM309 680q-18 0 -29 -11.5t-11 -31.5q0 -19 11.5 -31.5t28.5 -12.5q18 0 29 12.5t11 31.5q0 20 -11 31.5t-29 11.5zM518 460q20 0 20 -20v-420q0 -20 -20 -20h-101 q-20 0 -21 19l-4 35q-58 -63 -138 -63q-96 0 -158 68t-62 171q0 102 64.5 170.5t160.5 68.5q71 0 126 -42l3 15q3 18 21 18h109zM290 134q44 0 71 27.5t26 68.5q-1 43 -27 69.5t-70 26.5q-42 0 -69.5 -27t-27.5 -69q0 -41 27.5 -68.5t69.5 -27.5z" glyph-name="aring"/>
<glyph horiz-adv-x="915" unicode="æ" d="M695 469q100 0 161.5 -67t61.5 -177q0 -13 -1 -18q-3 -19 -20 -19h-300q13 -29 43.5 -47t72.5 -18q57 0 91 23q16 13 28 -3l55 -69q12 -16 -3 -28q-71 -55 -173 -55q-99 0 -164 49l-5 -22q-3 -18 -22 -18h-95q-19 0 -22 18l-6 29q-56 -56 -145 -56q-95 0 -156.5 68 t-61.5 171t65 171t168 68q83 0 133 -50l4 23q3 18 21 18h95q18 0 21 -18l4 -23q63 50 150 50zM596 283h172l-1 5q-5 24 -26.5 41t-56.5 17q-68 0 -88 -63zM290 134q44 0 71 27.5t26 68.5q-1 43 -27 69.5t-70 26.5t-70.5 -27t-26.5 -69q0 -41 27 -68.5t70 -27.5z" glyph-name="ae"/>
<glyph horiz-adv-x="487" unicode="ç" d="M453 63q9 -17 -6 -27q-60 -40 -137 -44l-11 -27q50 0 79 -27.5t29 -71.5q0 -50 -36.5 -79t-96.5 -29q-55 0 -103 29q-16 9 -8 27l16 31q9 17 27 8q28 -14 52 -14q48 0 48 34q0 36 -55 36q-14 0 -30 -3q-8 -2 -12 4l-5 6q-4 6 -1 13l25 68q-87 18 -141 82.5t-54 150.5 q0 101 73 170t182 69q94 0 158 -41q16 -10 6 -31l-42 -82q-9 -17 -29 -7q-34 18 -74 18q-51 0 -81.5 -27t-30.5 -69t30.5 -69t81.5 -27q43 0 77 19q18 10 27 -8z" glyph-name="ccedilla"/>
<glyph horiz-adv-x="545" unicode="è" d="M373 528q-9 -16 -27 -8l-191 85q-19 10 -8 27l52 91q9 17 27 6l172 -118q16 -11 7 -28zM513 225q0 -11 -1 -18q-3 -19 -20 -19h-300q13 -29 43.5 -47t72.5 -18q55 0 98 32q17 13 28 -6l43 -78q10 -16 -5 -28q-66 -52 -182 -52q-110 0 -183.5 69t-73.5 170t69 170t175 69 q107 0 171.5 -69t64.5 -175zM283 346q-72 0 -92 -63h172l-1 4q-6 26 -27.5 42.5t-51.5 16.5z" glyph-name="egrave"/>
<glyph horiz-adv-x="545" unicode="é" d="M208 520q-18 -8 -27 8l-32 55q-9 17 7 28l172 118q18 11 27 -6l52 -91q11 -17 -8 -27zM513 225q0 -11 -1 -18q-3 -19 -20 -19h-300q13 -29 43.5 -47t72.5 -18q55 0 98 32q17 13 28 -6l43 -78q10 -16 -5 -28q-66 -52 -182 -52q-110 0 -183.5 69t-73.5 170t69 170t175 69 q107 0 171.5 -69t64.5 -175zM283 346q-72 0 -92 -63h172l-1 4q-6 26 -27.5 42.5t-51.5 16.5z" glyph-name="eacute"/>
<glyph horiz-adv-x="545" unicode="ê" d="M122 531q-12 0 -16 7t3 17l101 150q9 13 24 13h89q15 0 24 -13l97 -150q7 -10 3 -17t-16 -7h-83q-14 0 -24 13l-47 67l-47 -67q-9 -13 -24 -13h-84zM277 469q107 0 171.5 -69t64.5 -175q0 -11 -1 -18q-3 -19 -20 -19h-300q13 -29 43.5 -47t72.5 -18q55 0 98 32 q17 13 28 -6l43 -78q10 -16 -5 -28q-66 -52 -182 -52q-110 0 -183.5 69t-73.5 170t69 170t175 69zM191 283h172l-1 4q-6 26 -27.5 42.5t-51.5 16.5q-72 0 -92 -63z" glyph-name="ecircumflex"/>
<glyph horiz-adv-x="545" unicode="ë" d="M163 545q-37 0 -62 24.5t-26 62.5t25 62.5t63 24.5t62 -24.5t26 -62.5t-25 -62.5t-63 -24.5zM390 542q-37 0 -62 24.5t-26 62.5t25 62.5t63 24.5t62 -24.5t26 -62.5t-25 -62.5t-63 -24.5zM513 225q0 -11 -1 -18q-3 -19 -20 -19h-300q13 -29 43.5 -47t72.5 -18q55 0 98 32 q17 13 28 -6l43 -78q10 -16 -5 -28q-66 -52 -182 -52q-110 0 -183.5 69t-73.5 170t69 170t175 69q107 0 171.5 -69t64.5 -175zM283 346q-72 0 -92 -63h172l-1 4q-6 26 -27.5 42.5t-51.5 16.5z" glyph-name="edieresis"/>
<glyph horiz-adv-x="271" unicode="ì" d="M231 528q-9 -16 -27 -8l-191 85q-19 10 -8 27l52 91q9 17 27 6l172 -118q16 -11 7 -28zM76 0q-20 0 -20 20v420q0 20 20 20h119q20 0 20 -20v-420q0 -20 -20 -20h-119z" glyph-name="igrave"/>
<glyph horiz-adv-x="271" unicode="í" d="M66 520q-18 -8 -27 8l-32 55q-9 17 7 28l172 118q18 11 27 -6l52 -91q11 -17 -8 -27zM76 0q-20 0 -20 20v420q0 20 20 20h119q20 0 20 -20v-420q0 -20 -20 -20h-119z" glyph-name="iacute"/>
<glyph horiz-adv-x="271" unicode="î" d="M302 555q7 -10 3 -17t-16 -7h-83q-14 0 -24 13l-47 67l-47 -67q-9 -13 -24 -13h-84q-12 0 -16 7t3 17l101 150q9 13 24 13h89q15 0 24 -13zM195 460q20 0 20 -20v-420q0 -20 -20 -20h-119q-20 0 -20 20v420q0 20 20 20h119z" glyph-name="icircumflex"/>
<glyph horiz-adv-x="271" unicode="ï" d="M21 545q-37 0 -62 24.5t-26 62.5t25 62.5t63 24.5t62 -24.5t26 -62.5t-25 -62.5t-63 -24.5zM248 542q-37 0 -62 24.5t-26 62.5t25 62.5t63 24.5t62 -24.5t26 -62.5t-25 -62.5t-63 -24.5zM76 0q-20 0 -20 20v420q0 20 20 20h119q20 0 20 -20v-420q0 -20 -20 -20h-119z" glyph-name="idieresis"/>
<glyph unicode="ð" d="M354 623q202 -150 202 -344q0 -131 -71.5 -209.5t-193.5 -78.5q-113 0 -185 66.5t-72 173.5q0 99 62.5 162t160.5 63q51 0 92 -18q-34 44 -92 86l-37 -38q-14 -14 -28 -2l-34 30q-16 13 -2 28l28 29q-8 4 -24.5 13t-18.5 10q-19 10 -6 28l60 77q12 15 28 6q40 -22 59 -34 l44 45q14 14 28 2l35 -30q16 -13 2 -28zM295 130q51 0 80.5 26.5t29.5 70.5q0 47 -30 74.5t-80 27.5q-49 0 -80.5 -27.5t-31.5 -72.5q0 -44 31 -71.5t81 -27.5z" glyph-name="eth"/>
<glyph unicode="ñ" d="M103 605q-14 12 -5 28q46 80 123 80q38 0 79.5 -23t59.5 -23q27 0 49 26q13 17 27 6l59 -48q14 -12 6 -28q-4 -9 -10.5 -18t-22.5 -27.5t-42 -30t-57 -11.5q-36 0 -74 22.5t-57 22.5q-30 0 -48 -20q-14 -16 -27 -5zM340 469q94 0 148.5 -58t54.5 -157v-234q0 -20 -20 -20 h-118q-20 0 -20 20v211q0 43 -23 69.5t-60 26.5q-39 0 -63.5 -26t-24.5 -70v-211q0 -20 -20 -20h-118q-20 0 -20 20v420q0 20 20 20h71q18 0 20 -19l5 -56q21 38 64.5 61t103.5 23z" glyph-name="ntilde"/>
<glyph horiz-adv-x="571" unicode="ò" d="M382 528q-9 -16 -27 -8l-191 85q-19 10 -8 27l52 91q9 17 27 6l172 -118q16 -11 7 -28zM286 -9q-106 0 -179.5 68.5t-73.5 170.5t73.5 170.5t179.5 68.5t179 -69t73 -170t-73 -170t-179 -69zM286 134q40 0 66.5 28t26.5 68t-26.5 68t-66.5 28q-41 0 -67.5 -28t-26.5 -68 t26.5 -68t67.5 -28z" glyph-name="ograve"/>
<glyph horiz-adv-x="571" unicode="ó" d="M217 520q-18 -8 -27 8l-32 55q-9 17 7 28l172 118q18 11 27 -6l52 -91q11 -17 -8 -27zM286 -9q-106 0 -179.5 68.5t-73.5 170.5t73.5 170.5t179.5 68.5t179 -69t73 -170t-73 -170t-179 -69zM286 134q40 0 66.5 28t26.5 68t-26.5 68t-66.5 28q-41 0 -67.5 -28t-26.5 -68 t26.5 -68t67.5 -28z" glyph-name="oacute"/>
<glyph horiz-adv-x="571" unicode="ô" d="M131 531q-12 0 -16 7t3 17l101 150q9 13 24 13h89q15 0 24 -13l97 -150q7 -10 3 -17t-16 -7h-83q-14 0 -24 13l-47 67l-47 -67q-9 -13 -24 -13h-84zM286 469q106 0 179 -69t73 -170t-73 -170t-179 -69t-179.5 68.5t-73.5 170.5t73.5 170.5t179.5 68.5zM286 134 q40 0 66.5 28t26.5 68t-26.5 68t-66.5 28q-41 0 -67.5 -28t-26.5 -68t26.5 -68t67.5 -28z" glyph-name="ocircumflex"/>
<glyph horiz-adv-x="571" unicode="õ" d="M354 536q-36 0 -74 22.5t-57 22.5q-30 0 -48 -20q-14 -16 -27 -5l-60 49q-14 12 -5 28q46 80 123 80q38 0 79.5 -23t59.5 -23q27 0 49 26q13 17 27 6l59 -48q14 -12 6 -28q-4 -9 -10.5 -18t-22.5 -27.5t-42 -30t-57 -11.5zM286 -9q-106 0 -179.5 68.5t-73.5 170.5 t73.5 170.5t179.5 68.5t179 -69t73 -170t-73 -170t-179 -69zM286 134q40 0 66.5 28t26.5 68t-26.5 68t-66.5 28q-41 0 -67.5 -28t-26.5 -68t26.5 -68t67.5 -28z" glyph-name="otilde"/>
<glyph horiz-adv-x="571" unicode="ö" d="M172 545q-37 0 -62 24.5t-26 62.5t25 62.5t63 24.5t62 -24.5t26 -62.5t-25 -62.5t-63 -24.5zM399 542q-37 0 -62 24.5t-26 62.5t25 62.5t63 24.5t62 -24.5t26 -62.5t-25 -62.5t-63 -24.5zM286 -9q-106 0 -179.5 68.5t-73.5 170.5t73.5 170.5t179.5 68.5t179 -69t73 -170 t-73 -170t-179 -69zM286 134q40 0 66.5 28t26.5 68t-26.5 68t-66.5 28q-41 0 -67.5 -28t-26.5 -68t26.5 -68t67.5 -28z" glyph-name="odieresis"/>
<glyph horiz-adv-x="528" unicode="÷" d="M272 400q-34 0 -54 20.5t-20 55.5q0 34 20 54.5t54 20.5q35 0 55.5 -20t20.5 -55t-20.5 -55.5t-55.5 -20.5zM54 230q-20 0 -20 20v84q0 20 20 20h438q20 0 20 -20v-84q0 -20 -20 -20h-438zM272 20q-34 0 -54 20.5t-20 55.5t20 55.5t54 20.5q35 0 55.5 -20.5t20.5 -55.5 t-20.5 -55.5t-55.5 -20.5z" glyph-name="divide"/>
<glyph horiz-adv-x="571" unicode="ø" d="M478 387q60 -68 60 -157q0 -101 -73 -170t-179 -69q-56 0 -104 20l-40 -48q-12 -16 -29 -3l-50 39q-16 13 -3 29l35 43q-62 67 -62 159q0 102 73.5 170.5t179.5 68.5q55 0 107 -22l37 48q13 16 29 3l49 -39q15 -13 4 -29zM286 134q40 0 66.5 28t26.5 68t-26.5 68 t-66.5 28q-41 0 -67.5 -28t-26.5 -68t26.5 -68t67.5 -28z" glyph-name="oslash"/>
<glyph horiz-adv-x="585" unicode="ù" d="M167 605q-19 10 -8 27l52 91q9 17 27 6l172 -118q16 -11 7 -28l-32 -55q-9 -16 -27 -8zM509 460q20 0 20 -20v-420q0 -20 -20 -20h-85q-18 0 -20 19l-3 35q-44 -63 -133 -63q-95 0 -156.5 59.5t-61.5 155.5v234q0 20 20 20h118q20 0 20 -20v-201q0 -43 22.5 -69.5 t57.5 -26.5q38 0 60.5 26t22.5 70v201q0 20 20 20h118z" glyph-name="ugrave"/>
<glyph horiz-adv-x="585" unicode="ú" d="M193 528l-32 55q-9 17 7 28l172 118q18 11 27 -6l52 -91q11 -17 -8 -27l-191 -85q-18 -8 -27 8zM509 460q20 0 20 -20v-420q0 -20 -20 -20h-85q-18 0 -20 19l-3 35q-44 -63 -133 -63q-95 0 -156.5 59.5t-61.5 155.5v234q0 20 20 20h118q20 0 20 -20v-201 q0 -43 22.5 -69.5t57.5 -26.5q38 0 60.5 26t22.5 70v201q0 20 20 20h118z" glyph-name="uacute"/>
<glyph horiz-adv-x="585" unicode="û" d="M134 531q-12 0 -16 7t3 17l101 150q9 13 24 13h89q15 0 24 -13l97 -150q7 -10 3 -17t-16 -7h-83q-14 0 -24 13l-47 67l-47 -67q-9 -13 -24 -13h-84zM509 460q20 0 20 -20v-420q0 -20 -20 -20h-85q-18 0 -20 19l-3 35q-44 -63 -133 -63q-95 0 -156.5 59.5t-61.5 155.5v234 q0 20 20 20h118q20 0 20 -20v-201q0 -43 22.5 -69.5t57.5 -26.5q38 0 60.5 26t22.5 70v201q0 20 20 20h118z" glyph-name="ucircumflex"/>
<glyph horiz-adv-x="585" unicode="ü" d="M175 545q-37 0 -62 24.5t-26 62.5t25 62.5t63 24.5t62 -24.5t26 -62.5t-25 -62.5t-63 -24.5zM402 542q-37 0 -62 24.5t-26 62.5t25 62.5t63 24.5t62 -24.5t26 -62.5t-25 -62.5t-63 -24.5zM509 460q20 0 20 -20v-420q0 -20 -20 -20h-85q-18 0 -20 19l-3 35 q-44 -63 -133 -63q-95 0 -156.5 59.5t-61.5 155.5v234q0 20 20 20h118q20 0 20 -20v-201q0 -43 22.5 -69.5t57.5 -26.5q38 0 60.5 26t22.5 70v201q0 20 20 20h118z" glyph-name="udieresis"/>
<glyph horiz-adv-x="546" unicode="ý" d="M188 528l-32 55q-9 17 7 28l172 118q18 11 27 -6l52 -91q11 -17 -8 -27l-191 -85q-18 -8 -27 8zM517 460q24 0 16 -23l-182 -452l-66 -164q-6 -16 -23 -16h-113q-24 0 -16 23l67 175l-183 434q-10 23 15 23h134q17 0 23 -16l94 -260l91 260q6 16 23 16h120z" glyph-name="yacute"/>
<glyph horiz-adv-x="594" unicode="þ" d="M76 -195q-20 0 -20 20v869q0 20 20 20h113q20 0 20 -20v-267q55 42 126 42q96 0 160.5 -68.5t64.5 -170.5q0 -103 -62 -171t-158 -68q-80 0 -138 63v-229q0 -20 -20 -20h-106zM304 134q42 0 69.5 27.5t27.5 68.5q0 42 -27.5 69t-69.5 27q-44 0 -70.5 -26.5t-26.5 -69.5 q0 -41 26.5 -68.5t70.5 -27.5z" glyph-name="thorn"/>
</font>
</defs>
</svg>
