<?xml version="1.0" encoding="UTF-8"?>
<svg width="24px" height="28px" viewBox="0 0 24 28" version="1.1" xmlns="http://www.w3.org/2000/svg" xmlns:xlink="http://www.w3.org/1999/xlink">
    <!-- Generator: Sketch 50.2 (55047) - http://www.bohemiancoding.com/sketch -->
    <title>Shape</title>
    <desc>Created with Sketch.</desc>
    <defs></defs>
    <g id="Page-1" stroke="none" stroke-width="1" fill="none" fill-rule="evenodd">
        <g id="3.1-WoC---Become-a-star" transform="translate(-589.000000, -746.000000)" fill="#FFFFFF" fill-rule="nonzero">
            <path d="M610.53888,758.348037 C610.175624,757.614075 609.897813,756.841114 609.706764,756.052817 L605.345933,756.052817 C605.155322,756.843305 604.877512,757.61539 604.514693,758.348037 C604.30524,758.772202 604.117696,759.191108 603.940669,759.605632 C602.455655,757.965939 600.317744,756.928313 597.936639,756.928313 C593.464508,756.928313 589.826246,760.566575 589.826246,765.038706 C589.826246,769.510836 593.464508,773.149098 597.936639,773.149098 C600.174895,773.149098 602.203698,772.23767 603.672499,770.766678 C604.321015,772.343711 605.131222,773.149098 606.088221,773.149098 L608.965353,773.149098 C610.28517,773.149098 610.980134,771.668028 611.486239,770.219384 C611.942391,768.913588 612.173754,767.49255 612.173754,765.996143 L612.173754,764.068999 C612.110655,761.761509 611.009492,759.29934 610.53888,758.348037 Z M594.208111,764.823556 C593.241471,764.823556 592.455365,764.03745 592.455365,763.07081 C592.455365,762.104171 593.241471,761.318065 594.208111,761.318065 C595.17475,761.318065 595.960856,762.104171 595.960856,763.07081 C595.960856,764.03745 595.17475,764.823556 594.208111,764.823556 Z M595.52267,759.996495 C595.52267,759.029855 596.308776,758.243749 597.275415,758.243749 C598.242055,758.243749 599.028161,759.029855 599.028161,759.996495 C599.028161,760.962696 598.242055,761.74924 597.275415,761.74924 C596.308776,761.74924 595.52267,760.962696 595.52267,759.996495 Z M598.589975,765.699929 C597.623335,765.699929 596.837229,764.913822 596.837229,763.947183 C596.837229,762.980544 597.623335,762.194438 598.589975,762.194438 C599.556614,762.194438 600.34272,762.980544 600.34272,763.947183 C600.34272,764.913822 599.556614,765.699929 598.589975,765.699929 Z M609.432459,753.009612 C609.428954,753.071835 609.425448,753.13581 609.422381,753.196279 L609.402663,753.554716 C609.403101,754.093685 609.449987,754.63616 609.534995,755.176444 L605.517264,755.176444 C605.60271,754.630464 605.650034,754.079663 605.650034,753.530178 C605.656607,753.362352 605.656607,753.187078 605.65354,753.009612 L609.432459,753.009612 Z M605.610159,752.133239 C605.552757,751.432579 605.448907,750.767412 605.337607,750.343686 C605.191253,749.786751 605.163209,749.291162 605.251723,748.828875 C605.604901,746.993751 606.973357,746.850902 607.384376,746.850902 C607.443969,746.850902 607.49217,746.853531 607.527225,746.85616 C607.561842,746.853531 607.610042,746.850902 607.669635,746.850902 C608.043408,746.850902 609.297936,746.973156 609.735246,748.543178 C609.889488,749.097046 609.883791,749.715765 609.719033,750.332731 C609.601599,750.77267 609.53368,751.446163 609.48548,752.133239 L605.610159,752.133239 Z" id="Shape"></path>
        </g>
    </g>
</svg>