<?xml version="1.0" encoding="UTF-8"?>
<svg width="26px" height="24px" viewBox="0 0 26 24" version="1.1" xmlns="http://www.w3.org/2000/svg" xmlns:xlink="http://www.w3.org/1999/xlink">
    <!-- Generator: Sketch 50.2 (55047) - http://www.bohemiancoding.com/sketch -->
    <title>Shape</title>
    <desc>Created with Sketch.</desc>
    <defs></defs>
    <g id="Page-1" stroke="none" stroke-width="1" fill="none" fill-rule="evenodd">
        <g id="3.1-WoC---Become-a-star" transform="translate(-648.000000, -748.000000)" fill="#FFFFFF" fill-rule="nonzero">
            <path d="M655.218338,771.909709 C655.113469,771.902487 655.008311,771.896709 654.903442,771.887175 C654.315829,771.831996 653.777039,771.640459 653.298629,771.294073 C652.473255,770.696349 651.945443,769.901598 651.735127,768.901442 C651.656548,768.525589 651.634592,768.14627 651.65857,767.763484 C651.685726,767.314251 651.775284,766.878597 651.917998,766.452477 C652.145937,765.772417 652.489722,765.155337 652.924798,764.586502 C653.252695,764.157781 653.623925,763.769506 654.033001,763.417343 C654.415787,763.087424 654.763328,762.723127 655.088913,762.337452 C655.498567,761.851241 655.869219,761.335852 656.23525,760.816996 C656.558812,760.35823 656.876886,759.896575 657.220383,759.453121 C657.478655,759.11858 657.751083,758.796462 658.054712,758.502078 C658.43461,758.134314 658.853797,757.822885 659.347808,757.620947 C659.71846,757.469277 660.103558,757.388964 660.504256,757.380586 C660.957243,757.370186 661.404742,757.414965 661.845308,757.522723 C662.519589,757.68826 663.103736,758.016156 663.606702,758.493411 C663.950777,758.821307 664.241983,759.192249 664.512678,759.580524 C664.79984,759.9922 665.063601,760.418898 665.335741,760.840685 C665.642548,761.315629 665.959177,761.783062 666.313074,762.225072 C666.665526,762.665637 667.054379,763.072113 667.479055,763.443921 C667.992711,763.893731 668.448588,764.394387 668.836863,764.956577 C669.167937,765.438743 669.437765,765.951532 669.626125,766.505633 C669.772884,766.937243 669.865041,767.378675 669.888442,767.834841 C669.924554,768.527612 669.804951,769.190049 669.490633,769.813196 C669.199716,770.390698 668.778506,770.854375 668.249539,771.222716 C667.860686,771.493411 667.44121,771.699104 666.979266,771.813507 C666.815751,771.85453 666.649637,771.883997 666.481788,771.900176 C666.458388,771.902487 666.435854,771.90682 666.41332,771.910287 C666.391364,771.922709 666.367097,771.913465 666.343985,771.916354 C666.324918,771.918954 666.304696,771.910287 666.286495,771.92242 C666.143203,771.92242 665.999333,771.92242 665.856041,771.92242 C665.838996,771.909998 665.81964,771.918665 665.80144,771.916354 C665.784684,771.916354 665.768795,771.916354 665.752328,771.916354 C665.73875,771.916354 665.724016,771.916354 665.710727,771.916354 C665.343541,771.904509 664.987044,771.827952 664.631703,771.745617 C664.029645,771.605213 663.439432,771.420609 662.840552,771.268073 C662.355497,771.145003 661.866397,771.045045 661.36863,770.988133 C661.023689,770.948554 660.677882,770.944221 660.332941,770.956066 C660.057046,770.96531 659.783173,771.007778 659.5119,771.058335 C658.976288,771.159159 658.451366,771.303318 657.926154,771.44661 C657.370608,771.599147 656.815063,771.750817 656.246228,771.843841 C656.014823,771.881108 655.783129,771.913176 655.547968,771.910865 C655.499722,771.910287 655.451766,771.917509 655.402942,771.916354 C655.34083,771.912887 655.279584,771.923865 655.218338,771.909709 Z M665.831485,748.08798 C666.605725,748.181004 667.197093,748.574479 667.648926,749.195027 C667.958621,749.620569 668.153337,750.097824 668.274095,750.608014 C668.377231,751.047423 668.416231,751.493478 668.401498,751.944732 C668.374342,752.773862 668.179626,753.56139 667.819663,754.308474 C667.570346,754.826174 667.248517,755.293029 666.838285,755.695749 C666.472833,756.05369 666.059424,756.339696 665.576968,756.517945 C665.238094,756.643037 664.889686,756.70486 664.528567,756.683482 C663.903398,756.64737 663.372697,756.39892 662.926643,755.964999 C662.546457,755.594635 662.287317,755.146848 662.107914,754.651103 C661.982533,754.304429 661.904242,753.947065 661.863508,753.581613 C661.835196,753.331141 661.823929,753.08038 661.832018,752.829618 C661.850508,752.237672 661.956821,751.661326 662.149226,751.101736 C662.353475,750.506033 662.642948,749.956843 663.038156,749.465721 C663.370675,749.052601 663.759239,748.703327 664.225516,748.445343 C664.568146,748.255539 664.933021,748.132759 665.323607,748.088558 C665.335452,748.081913 665.348452,748.084802 665.360586,748.083935 C665.373008,748.083935 665.385431,748.083935 665.397564,748.083935 C665.415476,748.081624 665.434543,748.090291 665.450432,748.07758 C665.535656,748.07758 665.619436,748.07758 665.704082,748.07758 C665.720549,748.09058 665.739039,748.081913 665.75695,748.083935 C665.769662,748.083935 665.781506,748.083935 665.794218,748.083935 C665.806062,748.084224 665.819352,748.081046 665.831485,748.08798 Z M648.023401,757.230072 C648.035534,756.993755 648.078002,756.761772 648.140114,756.533545 C648.260295,756.090091 648.457032,755.685926 648.76355,755.33983 C649.10618,754.953577 649.529701,754.703682 650.037001,754.602858 C650.448966,754.521389 650.855441,754.556346 651.254983,754.679415 C651.714327,754.821263 652.120514,755.06249 652.481633,755.376519 C653.042668,755.86273 653.44481,756.461032 653.723305,757.145714 C653.868908,757.504233 653.969733,757.875464 654.025489,758.25825 C654.052646,758.44401 654.065646,758.630925 654.069402,758.818707 C654.076046,759.175204 654.040223,759.525923 653.951821,759.870864 C653.833952,760.331074 653.635481,760.749972 653.31914,761.108491 C652.955999,761.519878 652.5033,761.775839 651.960755,761.863953 C651.562657,761.928665 651.171204,761.885042 650.788129,761.761395 C650.273028,761.594124 649.831596,761.306962 649.442743,760.935154 C649.063424,760.573457 648.762106,760.153403 648.527234,759.68626 C648.296984,759.228072 648.138092,758.745039 648.061535,758.236872 C648.048246,758.147025 648.037267,758.057179 648.025134,757.967622 C648.0156,757.926598 648.019356,757.884709 648.009534,757.843974 C648.004911,757.826929 648.007511,757.810751 648.006645,757.793129 C648.003467,757.771462 648.013289,757.74835 648,757.726683 C648,757.616903 648,757.507411 648,757.397342 C648.020512,757.367297 648.0104,757.333785 648.012711,757.301718 C648.014445,757.27774 648.008378,757.252317 648.023401,757.230072 Z M653.459255,751.947332 C653.461855,751.293562 653.554879,750.703927 653.773573,750.136536 C653.938532,749.707527 654.165026,749.315207 654.4805,748.977488 C654.82024,748.612903 655.223827,748.351452 655.710616,748.228383 C656.197404,748.104736 656.675815,748.139981 657.146137,748.31014 C657.560412,748.460366 657.92182,748.69726 658.242783,748.996267 C658.755283,749.472944 659.12218,750.048423 659.383631,750.693527 C659.549746,751.103758 659.664148,751.527856 659.729438,751.964955 C659.766417,752.212827 659.787795,752.462721 659.792995,752.714349 C659.798484,753.030978 659.778551,753.346452 659.726261,753.659037 C659.617636,754.312229 659.396053,754.920643 659.000844,755.458566 C658.754995,755.79224 658.456566,756.068135 658.090246,756.266895 C657.680882,756.488766 657.242628,756.581502 656.778951,756.545679 C656.359764,756.513611 655.973222,756.376675 655.61268,756.162893 C655.142359,755.884397 654.761595,755.508834 654.444677,755.066824 C654.068824,754.541901 653.810551,753.96151 653.647037,753.337785 C653.557479,752.9966 653.500278,752.649637 653.474277,752.297762 C653.463877,752.165737 653.454921,752.032845 653.459255,751.947332 Z M674,757.613147 C674,757.638281 674,757.663704 674,757.689126 C673.97111,758.319496 673.802396,758.912887 673.529967,759.478833 C673.315607,759.922287 673.042023,760.326452 672.703438,760.684682 C672.268939,761.145181 671.764817,761.504278 671.165359,761.719794 C670.806262,761.84893 670.436476,761.912487 670.054268,761.891398 C669.490055,761.859619 668.997489,761.655081 668.583213,761.270273 C668.241161,760.952199 668.015534,760.561035 667.873397,760.120758 C667.745417,759.726127 667.693704,759.319363 667.706705,758.905087 C667.734727,757.9942 668.022756,757.166226 668.521678,756.408454 C668.690104,756.151914 668.883375,755.91502 669.100047,755.698349 C669.545812,755.254317 670.055423,754.912843 670.658926,754.719283 C671.002133,754.61008 671.352852,754.560101 671.712238,754.588124 C672.261139,754.630592 672.739839,754.838308 673.141403,755.217049 C673.503678,755.558812 673.732194,755.980888 673.870286,756.454677 C673.946554,756.716416 673.991044,756.984222 674,757.257228 C674,757.282651 674,757.308362 674,757.333785 C673.997111,757.426809 673.9974,757.519834 674,757.613147 Z" id="Shape"></path>
        </g>
    </g>
</svg>