<?xml version="1.0" encoding="UTF-8" standalone="no"?>
<svg width="59px" height="46px" viewBox="0 0 59 46" version="1.1" xmlns="http://www.w3.org/2000/svg" xmlns:xlink="http://www.w3.org/1999/xlink">
    <!-- Generator: Sketch 50.2 (55047) - http://www.bohemiancoding.com/sketch -->
    <title>Artboard 1</title>
    <desc>Created with Sketch.</desc>
    <defs></defs>
    <g id="Artboard-1" stroke="none" stroke-width="1" fill="none" fill-rule="evenodd">
        <polygon id="Stroke-1" stroke="#FFFFFF" stroke-width="0.5" points="53.0804 23.0831 49.1674 29.4741 56.9924 29.4741"></polygon>
        <polygon id="Stroke-2" stroke="#FFFFFF" stroke-width="0.5" points="49.1681 29.4705 45.2551 35.8615 53.0801 35.8615"></polygon>
        <polygon id="Stroke-3" stroke="#FFFFFF" stroke-width="0.5" points="53.0796 35.8633 56.9926 29.4723 49.1676 29.4723"></polygon>
        <polygon id="Stroke-4" stroke="#FFFFFF" stroke-width="0.5" points="45.2559 23.0831 41.3429 29.4741 49.1679 29.4741"></polygon>
        <polygon id="Stroke-5" stroke="#FFFFFF" stroke-width="0.5" points="45.2549 35.8633 49.1679 29.4723 41.3429 29.4723"></polygon>
        <polygon id="Stroke-6" stroke="#FFFFFF" stroke-width="0.5" points="49.1699 29.4745 53.0829 23.0835 45.2579 23.0835"></polygon>
        <polygon id="Stroke-7" stroke="#FFFFFF" stroke-width="0.5" points="41.341 29.4702 37.428 35.8612 45.253 35.8612"></polygon>
        <polygon id="Stroke-8" stroke="#FFFFFF" stroke-width="0.5" points="37.4288 23.0827 33.5158 29.4737 41.3408 29.4737"></polygon>
        <polygon id="Stroke-9" stroke="#FFFFFF" stroke-width="0.5" points="37.4278 35.8629 41.3408 29.4719 33.5158 29.4719"></polygon>
        <polygon id="Stroke-10" stroke="#FFFFFF" stroke-width="0.5" points="41.3428 29.4744 45.2558 23.0834 37.4308 23.0834"></polygon>
        <polygon id="Stroke-11" stroke="#FFFFFF" stroke-width="0.5" points="33.514 29.4698 29.601 35.8608 37.426 35.8608"></polygon>
        <polygon id="Stroke-12" stroke="#FFFFFF" stroke-width="0.5" points="29.6015 23.0823 25.6885 29.4733 33.5135 29.4733"></polygon>
        <polygon id="Stroke-13" stroke="#FFFFFF" stroke-width="0.5" points="29.6007 35.8625 33.5137 29.4715 25.6887 29.4715"></polygon>
        <polygon id="Stroke-14" stroke="#FFFFFF" stroke-width="0.5" points="33.5155 29.4748 37.4285 23.0828 29.6035 23.0828"></polygon>
        <polygon id="Stroke-15" stroke="#FFFFFF" stroke-width="0.5" points="25.6851 29.4738 29.5981 23.0828 21.7731 23.0828"></polygon>
        <polygon id="Stroke-16" stroke="#FFFFFF" stroke-width="0.5" points="25.6869 29.4694 21.7739 35.8604 29.5989 35.8604"></polygon>
        <polygon id="Stroke-17" stroke="#FFFFFF" stroke-width="0.5" points="21.7744 23.0819 17.8614 29.4729 25.6864 29.4729"></polygon>
        <polygon id="Stroke-18" stroke="#FFFFFF" stroke-width="0.5" points="21.7734 35.8619 25.6864 29.4709 17.8614 29.4709"></polygon>
        <polygon id="Stroke-19" stroke="#FFFFFF" stroke-width="0.5" points="17.8596 29.469 13.9466 35.86 21.7716 35.86"></polygon>
        <polygon id="Stroke-20" stroke="#FFFFFF" stroke-width="0.5" points="13.9473 23.0815 10.0343 29.4725 17.8593 29.4725"></polygon>
        <polygon id="Stroke-21" stroke="#FFFFFF" stroke-width="0.5" points="13.9463 35.8615 17.8593 29.4705 10.0343 29.4705"></polygon>
        <polygon id="Stroke-22" stroke="#FFFFFF" stroke-width="0.5" points="17.8614 29.4731 21.7744 23.0821 13.9494 23.0821"></polygon>
        <polygon id="Stroke-23" stroke="#FFFFFF" stroke-width="0.5" points="10.0325 29.4686 6.1195 35.8596 13.9445 35.8596"></polygon>
        <polygon id="Stroke-24" stroke="#FFFFFF" stroke-width="0.5" points="6.1202 23.0811 2.2072 29.4721 10.0322 29.4721"></polygon>
        <polygon id="Stroke-25" stroke="#FFFFFF" stroke-width="0.5" points="6.1192 35.8611 10.0322 29.4701 2.2072 29.4701"></polygon>
        <polygon id="Stroke-26" stroke="#FFFFFF" stroke-width="0.5" points="10.0342 29.4727 13.9472 23.0817 6.1222 23.0817"></polygon>
        <g id="Group-61" transform="translate(0.000000, -0.980000)" fill="#FFFFFF">
            <path d="M29.95,2.5 C50.54,2.5 57.02,22.41 57.02,22.41 L2.11,22.41 C2.11,22.41 9.35,2.5 29.95,2.5 M29.83,0.98 C6.32,0.98 0,24.02 0,24.02 L59.43,24.02 C59.43,24.02 53.35,0.98 29.83,0.98" id="Fill-27"></path>
            <path d="M24.0479,18.4225 C23.9379,18.8325 23.5209,19.0735 23.1169,18.9625 C22.7119,18.8505 22.4729,18.4295 22.5829,18.0195 C22.6939,17.6095 23.7669,16.5385 23.7669,16.5385 C23.7669,16.5385 24.1579,18.0125 24.0479,18.4225" id="Fill-29"></path>
            <path d="M32.0646,18.1946 C31.7626,18.4896 31.2826,18.4806 30.9916,18.1756 C30.7006,17.8706 30.7076,17.3856 31.0096,17.0896 C31.3116,16.7946 32.7756,16.4296 32.7756,16.4296 C32.7756,16.4296 32.3666,17.8996 32.0646,18.1946" id="Fill-31"></path>
            <path d="M37.875,12.7609 C38.038,13.1529 37.857,13.6019 37.471,13.7669 C37.084,13.9319 36.64,13.7489 36.476,13.3579 C36.313,12.9659 36.505,11.4529 36.505,11.4529 C36.505,11.4529 37.712,12.3689 37.875,12.7609" id="Fill-33"></path>
            <path d="M34.9586,7.9461 C34.6576,7.6501 34.6516,7.1641 34.9436,6.8601 C35.2356,6.5561 35.7156,6.5491 36.0166,6.8451 C36.3176,7.1411 36.7236,8.6101 36.7236,8.6101 C36.7236,8.6101 35.2596,8.2421 34.9586,7.9461" id="Fill-35"></path>
            <path d="M27.382,7.4584 C27.03,7.6904 26.561,7.5884 26.332,7.2334 C26.103,6.8774 26.203,6.4024 26.555,6.1704 C26.907,5.9394 28.412,5.8634 28.412,5.8634 C28.412,5.8634 27.734,7.2264 27.382,7.4584" id="Fill-37"></path>
            <path d="M18.9516,8.9497 C18.6396,8.6647 18.6166,8.1797 18.8976,7.8647 C19.1786,7.5507 19.6576,7.5247 19.9696,7.8097 C20.2806,8.0947 20.7396,9.5477 20.7396,9.5477 C20.7396,9.5477 19.2636,9.2347 18.9516,8.9497" id="Fill-39"></path>
            <path d="M19.77,12.8199 C20.185,12.7549 20.572,13.0419 20.636,13.4619 C20.7,13.8809 20.417,14.2729 20.002,14.3379 C19.587,14.4029 18.184,13.8459 18.184,13.8459 C18.184,13.8459 19.355,12.8849 19.77,12.8199" id="Fill-41"></path>
            <path d="M12.2026,11.6102 C12.3396,11.2082 12.7716,10.9972 13.1676,11.1362 C13.5636,11.2742 13.7736,11.7112 13.6366,12.1132 C13.4996,12.5142 12.3566,13.5092 12.3566,13.5092 C12.3566,13.5092 12.0646,12.0112 12.2026,11.6102" id="Fill-43"></path>
            <path d="M15.0541,18.6693 C15.2221,19.0593 15.0451,19.5103 14.6601,19.6803 C14.2771,19.8493 13.8301,19.6713 13.6621,19.2813 C13.4951,18.8923 13.6701,17.3773 13.6701,17.3773 C13.6701,17.3773 14.8871,18.2793 15.0541,18.6693" id="Fill-45"></path>
            <path d="M8.1183,18.7434 C7.8733,19.0884 7.3993,19.1654 7.0593,18.9174 C6.7193,18.6694 6.6413,18.1904 6.8873,17.8454 C7.1333,17.5004 8.5093,16.8794 8.5093,16.8794 C8.5093,16.8794 8.3643,18.3994 8.1183,18.7434" id="Fill-47"></path>
            <path d="M27.8844,12.2368 C27.6174,11.9098 27.6634,11.4258 27.9864,11.1558 C28.3104,10.8858 28.7874,10.9318 29.0554,11.2588 C29.3224,11.5878 29.5674,13.0918 29.5674,13.0918 C29.5674,13.0918 28.1514,12.5648 27.8844,12.2368" id="Fill-49"></path>
            <path d="M40.5544,18.4767 C40.8664,18.7617 40.8894,19.2467 40.6074,19.5617 C40.3264,19.8757 39.8474,19.9007 39.5364,19.6157 C39.2244,19.3307 38.7674,17.8777 38.7674,17.8777 C38.7674,17.8777 40.2424,18.1917 40.5544,18.4767" id="Fill-51"></path>
            <path d="M44.653,15.4038 C44.679,14.9798 45.039,14.6588 45.457,14.6848 C45.876,14.7108 46.194,15.0738 46.168,15.4978 C46.142,15.9228 45.306,17.1908 45.306,17.1908 C45.306,17.1908 44.628,15.8278 44.653,15.4038" id="Fill-53"></path>
            <path d="M50.8378,18.271 C50.6178,17.909 50.7298,17.436 51.0868,17.215 C51.4448,16.993 51.9118,17.105 52.1318,17.467 C52.3508,17.829 52.3868,19.354 52.3868,19.354 C52.3868,19.354 51.0578,18.633 50.8378,18.271" id="Fill-55"></path>
            <path d="M43.1718,9.557 C43.5778,9.447 43.9928,9.691 44.1008,10.1 C44.2098,10.51 43.9698,10.931 43.5648,11.041 C43.1588,11.151 41.7038,10.751 41.7038,10.751 C41.7038,10.751 42.7658,9.667 43.1718,9.557" id="Fill-57"></path>
            <path d="M56.9,41.89 C56.9,43.86 55.32,45.45 53.38,45.46 L5.53,45.45 C3.59,45.45 2.02,43.86 2.02,41.89 L2.02,38.33 L56.9,38.33 L56.9,41.89 Z M0.7,36.79 L0.7,41.89 C0.7,45.27 2.71,47 5.55,47 L53.72,47 C56.33,47 58.21,44.9 58.21,41.89 L58.21,36.79 L0.7,36.79 Z" id="Fill-59"></path>
        </g>
    </g>
</svg>