<?xml version="1.0" encoding="UTF-8"?>
<svg width="22px" height="30px" viewBox="0 0 22 30" version="1.1" xmlns="http://www.w3.org/2000/svg" xmlns:xlink="http://www.w3.org/1999/xlink">
    <!-- Generator: Sketch 50.2 (55047) - http://www.bohemiancoding.com/sketch -->
    <title>Shape</title>
    <desc>Created with Sketch.</desc>
    <defs></defs>
    <g id="Page-1" stroke="none" stroke-width="1" fill="none" fill-rule="evenodd">
        <g id="3.1-WoC---Become-a-star" transform="translate(-710.000000, -745.000000)" fill="#FFFFFF" fill-rule="nonzero">
            <path d="M712.068012,755.921045 L711.003005,754.898659 L712.099142,753.909633 L711.288403,752.675514 L712.576719,751.95439 L712.059608,750.571312 L713.475358,750.153422 L713.278291,748.690506 L714.751498,748.598318 L714.886735,747.128541 L716.343649,747.368659 L716.802874,745.966372 L718.170428,746.521644 L718.928257,745.254938 L720.137506,746.10161 L721.15972,745.036603 L722.149005,746.132311 L723.383038,745.322 L724.104334,746.610316 L725.486725,746.092777 L725.904701,747.508699 L727.368132,747.311717 L727.459718,748.785267 L728.92984,748.920161 L728.689379,750.376903 L730.092351,750.836557 L729.536394,752.20394 L730.803785,752.961597 L729.956599,754.170845 L731.021776,755.193147 L729.925727,756.182517 L730.736723,757.416121 L729.44798,758.137245 L729.965516,759.520666 L728.549254,759.938555 L728.746234,761.401815 L727.273284,761.493316 L727.2455,761.794493 L727.137706,762.963522 L725.681221,762.722719 L725.221823,764.12612 L723.854783,763.570162 L723.096783,764.836524 L721.887106,763.990282 L720.865234,765.055376 L719.876035,763.95941 L718.642431,764.770236 L717.92045,763.48149 L716.538058,763.998171 L716.11991,762.583278 L714.656909,762.780089 L714.613344,762.079975 L714.565235,761.306968 L713.09503,761.171301 L713.335405,759.715247 L711.93226,759.255421 L712.488219,757.888209 L711.221855,757.130552 L712.068012,755.921045 Z M728.137452,763.598118 L732,771.4088 L726.802227,770.155815 L724.745019,774.963397 L721.000043,767.390347 L717.254981,774.963397 L715.197774,770.155815 L710,771.4088 L713.676028,763.975274 L714.797378,763.82443 L715.365342,763.748021 L715.527506,764.296861 L715.847891,765.381077 L716.906982,764.985226 L717.442787,764.784985 L717.723124,765.285288 L718.275995,766.272171 L719.2212,765.650865 L719.699463,765.336484 L720.082965,765.761406 L720.841651,766.601989 L721.625634,765.784904 L722.022601,765.371129 L722.492716,765.700005 L723.419828,766.348579 L724.000997,765.377732 L724.294884,764.886692 L724.824858,765.102283 L725.871684,765.527979 L726.223286,764.453966 L726.401401,763.909842 L726.96585,764.003145 L728.082995,764.187865 L728.137452,763.598118 Z" id="Shape"></path>
        </g>
    </g>
</svg>