<?xml version="1.0" encoding="UTF-8"?>
<svg width="30px" height="16px" viewBox="0 0 30 16" version="1.1" xmlns="http://www.w3.org/2000/svg" xmlns:xlink="http://www.w3.org/1999/xlink">
    <!-- Generator: Sketch 50.2 (55047) - http://www.bohemiancoding.com/sketch -->
    <title>Shape</title>
    <desc>Created with Sketch.</desc>
    <defs></defs>
    <g id="Page-1" stroke="none" stroke-width="1" fill="none" fill-rule="evenodd">
        <g id="3.1-WoC---Become-a-star" transform="translate(-706.000000, -694.000000)" fill="#FFFFFF" fill-rule="nonzero">
            <path d="M734.204036,700.256565 L728.223616,699.15812 C728.162591,699.15812 728.101567,699.097096 728.071054,699.066583 C727.49132,698.364799 723.799326,694.489732 721.388851,694.489732 L712.936931,694.489732 C710.953629,694.489732 709.1534,696.350985 708.024444,697.907114 C707.292147,698.883509 706.895487,700.042978 706.895487,701.263472 L706.895487,704.802904 C706.895487,705.931861 707.810857,706.847231 708.939814,706.847231 L709.397499,706.847231 C709.763647,708.311824 711.075678,709.410268 712.66232,709.410268 C714.248962,709.410268 715.560993,708.311824 715.927141,706.847231 L726.942098,706.847231 C727.308246,708.311824 728.620276,709.410268 730.206918,709.410268 C731.79356,709.410268 733.105591,708.311824 733.471739,706.847231 L733.532764,706.847231 C734.539671,706.847231 735.424529,706.084423 735.546579,705.077515 L735.882215,702.514478 C736.004264,701.446546 735.271968,700.439639 734.204036,700.256565 Z M712.631808,707.823626 C711.655413,707.823626 710.862092,707.030305 710.862092,706.05391 C710.862092,705.077515 711.655413,704.284194 712.631808,704.284194 C713.608203,704.284194 714.401524,705.077515 714.401524,706.05391 C714.432036,707.030305 713.638715,707.823626 712.631808,707.823626 Z M716.628925,699.646318 L711.319777,699.646318 C711.045166,699.646318 710.862092,699.371707 711.014653,699.127608 C711.807974,697.72404 713.791277,696.350985 714.767672,696.350985 L716.110215,696.350985 C716.293289,696.350985 716.445851,696.473034 716.476363,696.656108 L716.995073,699.219145 C717.025585,699.432732 716.842511,699.646318 716.628925,699.646318 Z M725.172382,699.646318 L719.314011,699.646318 C719.130937,699.646318 718.978375,699.524269 718.947863,699.341194 L718.429153,696.778158 C718.398641,696.564571 718.551203,696.350985 718.795301,696.350985 L721.388851,696.350985 C722.273709,696.350985 724.104449,697.754553 725.41648,699.005559 C725.660579,699.249657 725.508017,699.646318 725.172382,699.646318 Z M730.176406,707.823626 C729.200011,707.823626 728.40669,707.030305 728.40669,706.05391 C728.40669,705.077515 729.200011,704.284194 730.176406,704.284194 C731.152801,704.284194 731.946122,705.077515 731.946122,706.05391 C731.946122,707.030305 731.152801,707.823626 730.176406,707.823626 Z" id="Shape"></path>
        </g>
    </g>
</svg>