<?xml version="1.0" encoding="UTF-8"?>
<svg width="24px" height="22px" viewBox="0 0 24 22" version="1.1" xmlns="http://www.w3.org/2000/svg" xmlns:xlink="http://www.w3.org/1999/xlink">
    <!-- Generator: Sketch 50.2 (55047) - http://www.bohemiancoding.com/sketch -->
    <title>Shape</title>
    <desc>Created with Sketch.</desc>
    <defs></defs>
    <g id="Page-1" stroke="none" stroke-width="1" fill="none" fill-rule="evenodd">
        <g id="3.1-WoC---Become-a-star" transform="translate(-589.000000, -691.000000)" fill="#FFFFFF" fill-rule="nonzero">
            <path d="M596.218239,713 C595.483866,713 595.483866,711.884586 596.218239,711.884586 L600.444346,711.884586 L600.444346,702.057157 L589.473789,691.99071 C589.054642,691.626988 589.3283,691 589.823655,691 L612.176985,691 C612.67927,691 612.925215,691.623524 612.5511,691.966462 L601.556297,702.057157 L601.556297,711.884586 L605.782402,711.884586 C606.516776,711.884586 606.516776,713 605.782402,713 L596.218239,713 Z M603.066609,698.45111 L604.687771,697.096678 C605.089599,696.760668 604.847117,696.112896 604.330978,696.112896 L597.839401,696.112896 C597.326726,696.112896 597.063461,696.767596 597.506855,697.117462 L600.728396,699.809007 C600.939701,699.985672 601.244535,699.978744 601.445448,699.805543 L603.066609,698.45111 Z" id="Shape"></path>
        </g>
    </g>
</svg>