<?xml version="1.0" encoding="UTF-8"?>
<svg width="17px" height="24px" viewBox="0 0 17 24" version="1.1" xmlns="http://www.w3.org/2000/svg" xmlns:xlink="http://www.w3.org/1999/xlink">
    <!-- Generator: Sketch 50.2 (55047) - http://www.bohemiancoding.com/sketch -->
    <title>Shape</title>
    <desc>Created with Sketch.</desc>
    <defs></defs>
    <g id="Page-1" stroke="none" stroke-width="1" fill="none" fill-rule="evenodd">
        <g id="3.1-WoC---Become-a-star" transform="translate(-653.000000, -690.000000)" fill="#FFFFFF" fill-rule="nonzero">
            <path d="M659.26536,700.627537 L657.93021,701.432942 L658.948951,710.997129 C659.017602,711.867077 658.592345,712.701979 657.848318,713.157991 C657.104291,713.614003 656.167325,713.614003 655.423299,713.157991 C654.679272,712.701979 654.254015,711.867077 654.322665,710.997129 L655.341407,701.432942 L654.006256,700.627537 C653.368714,700.244851 652.988821,699.546546 653.013882,698.80339 L653.253586,691.132864 C653.267834,690.776338 653.563177,690.495869 653.919963,690.500046 C654.274862,690.499811 654.566243,690.780597 654.579149,691.135261 L654.751736,696.137882 C654.755507,696.411282 654.959916,696.640219 655.231143,696.674819 C655.376989,696.690915 655.522946,696.645519 655.633934,696.549542 C655.744922,696.453565 655.810904,696.315685 655.816021,696.169044 L655.988608,691.161629 C655.988608,690.797571 656.283735,690.502443 656.647794,690.502443 C657.011852,690.502443 657.306979,690.797571 657.306979,691.161629 L657.479566,696.169044 C657.485001,696.312479 657.548669,696.447501 657.655876,696.542947 C657.763083,696.638392 657.904564,696.686014 658.047664,696.674819 C658.318892,696.640219 658.5233,696.411282 658.527072,696.137882 L658.694865,691.135261 C658.707735,690.781524 658.997684,690.501099 659.351654,690.500046 C659.706553,690.499811 659.997934,690.780597 660.01084,691.135261 L660.250544,698.805787 C660.276215,699.546622 659.899376,700.243454 659.26536,700.627537 Z M669.793157,696.336837 C669.793157,693.112819 668.158376,690.500046 666.144863,690.500046 C664.13135,690.500046 662.496569,693.112819 662.496569,696.336837 C662.496569,698.805787 663.455385,700.891211 664.816903,701.74216 L663.83172,710.997129 C663.76307,711.867077 664.188326,712.701979 664.932353,713.157991 C665.67638,713.614003 666.613346,713.614003 667.357373,713.157991 C668.1014,712.701979 668.526656,711.867077 668.458006,710.997129 L667.472823,701.74216 C668.834341,700.891211 669.793157,698.805787 669.793157,696.336837 Z" id="Shape"></path>
        </g>
    </g>
</svg>