<?xml version="1.0" encoding="UTF-8"?>
<svg width="34px" height="17px" viewBox="0 0 34 17" version="1.1" xmlns="http://www.w3.org/2000/svg" xmlns:xlink="http://www.w3.org/1999/xlink">
    <!-- Generator: Sketch 50.2 (55047) - http://www.bohemiancoding.com/sketch -->
    <title>Rectangle-path</title>
    <desc>Created with Sketch.</desc>
    <defs></defs>
    <g id="Page-1" stroke="none" stroke-width="1" fill="none" fill-rule="evenodd">
        <g id="3.1-WoC---Become-a-star" transform="translate(-524.000000, -693.000000)" fill="#FFFFFF" fill-rule="nonzero">
            <path d="M534.612631,699.397165 L547.387013,699.397165 L547.387013,703.904423 L534.612631,703.904423 L534.612631,699.397165 Z M524.953125,700.097177 C524.953125,699.809872 525.137842,699.576414 525.364995,699.576414 L526.249712,699.576414 L526.249712,703.444734 L525.364995,703.444734 C525.137842,703.444734 524.953125,703.211276 524.953125,702.924333 L524.953125,700.097177 Z M530.329541,695.419705 L530.329541,693.5 L533.593832,693.5 L533.593832,709.801587 L530.329541,709.801587 L530.329541,707.882244 L530.329541,703.904784 L530.329541,699.397165 L530.329541,695.419705 Z M529.310386,705.193501 L529.310386,707.663965 L527.268511,707.663965 L527.268511,695.637623 L529.310386,695.637623 L529.310386,698.108447 L529.310386,705.193501 Z M556.635005,699.576414 C556.862158,699.576414 557.046875,699.809872 557.046875,700.097177 L557.046875,702.924333 C557.046875,703.211276 556.862158,703.444734 556.635005,703.444734 L555.750288,703.444734 L555.750288,699.576414 L556.635005,699.576414 Z M551.670459,693.5 L551.670459,695.419705 L551.670459,707.882244 L551.670459,709.801587 L548.406168,709.801587 L548.406168,693.5 L551.670459,693.5 Z M552.689614,695.637623 L554.731846,695.637623 L554.731846,707.664326 L552.689614,707.664326 L552.689614,695.637623 Z" id="Rectangle-path"></path>
        </g>
    </g>
</svg>