<?xml version="1.0" encoding="UTF-8"?>
<svg width="24px" height="24px" viewBox="0 0 24 24" version="1.1" xmlns="http://www.w3.org/2000/svg" xmlns:xlink="http://www.w3.org/1999/xlink">
    <!-- Generator: Sketch 50.2 (55047) - http://www.bohemiancoding.com/sketch -->
    <title>Shape</title>
    <desc>Created with Sketch.</desc>
    <defs></defs>
    <g id="Page-1" stroke="none" stroke-width="1" fill="none" fill-rule="evenodd">
        <g id="3.1-WoC---Become-a-star" transform="translate(-529.000000, -748.000000)" fill="#FFFFFF" fill-rule="nonzero">
            <path d="M540.983096,764.05701 C538.751741,764.05701 536.926086,762.231355 536.926086,760 C536.926086,757.768645 538.751741,755.94299 540.983096,755.94299 C543.214451,755.94299 545.040105,757.768645 545.040105,760 C545.040105,762.231355 543.214451,764.05701 540.983096,764.05701 Z M550.111367,757.464369 C549.908517,756.720584 549.604241,756.010607 549.232349,755.368247 L550.077559,752.832616 L548.150479,750.905537 L545.614848,751.750747 C544.93868,751.378855 544.228703,751.074579 543.484918,750.871728 L542.335432,748.50514 L539.630759,748.50514 L538.447465,750.871728 C537.70368,751.074579 536.993703,751.378855 536.351343,751.750747 L533.815712,750.905537 L531.888633,752.832616 L532.733843,755.368247 C532.36195,756.044416 532.057675,756.754392 531.854824,757.498177 L529.488235,758.647663 L529.488235,761.352337 L531.854824,762.535631 C532.057675,763.279416 532.36195,763.989393 532.733843,764.631753 L531.888633,767.167384 L533.815712,769.094463 L536.351343,768.249253 C537.027511,768.621145 537.737488,768.925421 538.481273,769.128272 L539.664568,771.49486 L542.369241,771.49486 L543.552535,769.128272 C544.29632,768.925421 545.006297,768.621145 545.648657,768.249253 L548.184288,769.094463 L550.111367,767.167384 L549.266157,764.631753 C549.63805,763.955584 549.942325,763.245608 550.145176,762.501823 L552.511765,761.318528 L552.511765,758.613855 L550.111367,757.464369 Z" id="Shape"></path>
        </g>
    </g>
</svg>