<?xml version="1.0" encoding="UTF-8"?>
<svg width="26px" height="26px" viewBox="0 0 26 26" version="1.1" xmlns="http://www.w3.org/2000/svg" xmlns:xlink="http://www.w3.org/1999/xlink">
    <!-- Generator: Sketch 50.2 (55047) - http://www.bohemiancoding.com/sketch -->
    <title>Shape</title>
    <desc>Created with Sketch.</desc>
    <defs></defs>
    <g id="Page-1" stroke="none" stroke-width="1" fill="none" fill-rule="evenodd">
        <g id="3.1-WoC---Become-a-star" transform="translate(-768.000000, -747.000000)" fill="#FFFFFF">
            <path d="M783.581376,758.500112 C784.227899,758.628168 784.84495,758.942822 785.34608,759.443953 L785.379686,759.477559 C786.724683,760.822555 786.726352,763.002414 785.382689,764.346077 L780.372347,769.356419 C779.028628,770.700138 776.848757,770.698345 775.503828,769.353416 L775.470222,769.319811 C774.96908,768.818668 774.65443,768.201622 774.526377,767.555112 L770.991436,771.090053 L771.709977,771.808594 C771.858912,771.957529 771.857963,772.200948 771.707242,772.351669 L771.171564,772.887347 C771.018529,773.040382 770.777123,773.038717 770.627201,772.888794 L768.111206,770.372799 C767.963449,770.225043 767.961931,769.979157 768.112653,769.828436 L768.648331,769.292758 C768.801366,769.139723 769.042195,769.140812 769.191406,769.290023 L769.909947,770.008564 L774.755099,765.163412 L773.080869,763.489182 C772.932123,763.340436 772.932662,763.096607 773.083383,762.945886 L773.619061,762.410208 C773.772096,762.257173 774.013025,762.258361 774.162358,762.407694 L775.836588,764.081924 L777.431646,762.486865 L775.757417,760.812635 C775.60867,760.663889 775.609209,760.42006 775.759931,760.269339 L776.295609,759.733661 C776.448643,759.580626 776.689572,759.581814 776.838905,759.731147 L778.513135,761.405377 L780.108194,759.810318 L778.433964,758.136088 C778.285217,757.987342 778.285756,757.743513 778.436478,757.592792 L778.972156,757.057114 C779.125191,756.904079 779.366119,756.905267 779.515452,757.0546 L781.189682,758.728829 L782.655497,757.263015 L784.250416,753.807356 C784.567285,753.120807 784.883788,751.905783 784.941712,751.15277 L785.206755,747.707203 C785.256865,747.05578 786.047988,746.763125 786.509975,747.225111 L793.774889,754.490025 C794.236875,754.952012 793.94422,755.743135 793.292797,755.793245 L789.84723,756.058288 C789.09425,756.11621 787.880688,756.432025 787.192644,756.749584 L783.736985,758.344503 L783.581376,758.500112 Z M784.264592,760.525441 C783.516555,759.777404 782.305081,759.776408 781.55905,760.522438 L776.548708,765.53278 C775.802706,766.278783 775.803633,767.490245 776.551711,768.238322 L776.585317,768.271928 C777.333354,769.019965 778.544828,769.020961 779.290859,768.274931 L784.3012,763.264589 C785.047203,762.518586 785.046275,761.307125 784.298198,760.559047 L784.264592,760.525441 Z" id="Shape"></path>
        </g>
    </g>
</svg>